<svg viewBox="-10.47876 -2.9806 90.81592 17.8836" width="1200" height="800" xmlns="http://www.w3.org/2000/svg"><defs><clipPath id="a" clipPathUnits="userSpaceOnUse"><path d="M377.978 104.005h198.024v33.796H377.978z"></path></clipPath></defs><g transform="matrix(.35278 0 0 -.35278 -133.3423 48.613)" clip-path="url(#a)"><path fill="#0079c1" d="M386.6693 116.9783c0-1.904-.638-2.815-2.858-2.815h-1.383v5.333h1.474c2.017 0 2.767-.713 2.767-2.518m2.974-.198c0 2.217-1.806 3.014-3.999 3.064v.083c1.864.148 3.396.933 3.396 2.819 0 2.094-1.733 2.486-3.67 2.486-2.331 0-5.067-.064-7.392 0v-.586c.495.033 1.685-.033 1.685-.65v-9.204c0-.596-1.226-.696-1.685-.696v-.569c2.252.068 4.915 0 7.171 0 2.375 0 4.494.82 4.494 3.253m-3.446 5.615c0-1.468-.644-2.286-2.332-2.286h-1.437v4.504c.183.017.795.033.978.033h.496c1.723 0 2.295-.767 2.295-2.251m18.4789-8.8489c-1.043 0-2.086.015-3.128-.018v.586c.476 0 1.79.032 1.79.68v8.574h-.036l-4.791-9.973h-.494l-4.662 9.973h-.036v-8.574c0-.666 1.372-.68 1.865-.68l.019-.586c-1.3.053-3.077.085-4.359 0v.586c.496 0 1.685.048 1.685.68v9.189c0 .615-1.226.664-1.685.664l-.017.585c1.483-.064 3.076-.064 4.558 0l3.987-8.36 4.058 8.343c1.43-.062 2.967-.047 4.394.017v-.585c-.476 0-1.719-.034-1.719-.664v-9.189c0-.648 1.225-.68 1.719-.68v-.586c-1.044.033-2.104.018-3.148.018m17.2307 5.8553c0 3.867-2.363 6.035-6.624 6.035-4.262 0-6.643-2.151-6.643-6.035 0-3.885 2.361-6.053 6.643-6.053 4.278 0 6.624 2.168 6.624 6.053m-3.095 0c0-2.286-.221-5.468-3.529-5.468-3.31 0-3.548 3.182-3.548 5.468 0 2.282.238 5.45 3.548 5.45 3.29 0 3.529-3.183 3.529-5.45"></path><path fill="#ed1d24" d="M445.9653 137.8008c-9.328 0-16.898-7.568-16.898-16.899 0-9.333 7.57-16.897 16.898-16.897 9.337 0 16.903 7.564 16.903 16.897 0 9.331-7.566 16.899-16.903 16.899"></path><path fill="#fff" d="M445.4509 126.0595l-2.934 3.825a.6526.6526 0 01-1.031.013l-3.493-4.402v-6.898l3.473 4.451c.123.157.315.258.53.258.218 0 .412-.104.536-.264l2.948-3.855a.607.607 0 01.487-.243c.199 0 .376.095.488.243l2.948 3.855c.124.16.317.264.535.264.216 0 .407-.101.53-.258l3.473-4.451v6.898l-3.492 4.402c-.12.15-.304.246-.511.246a.654.654 0 01-.521-.259l-2.934-3.825a.6506.6506 0 00-.516-.253c-.21 0-.397.099-.516.253m-7.458-7.462h15.948v-5.06h-15.948z"></path><path fill="#0079c1" d="M478.2155 113.5216v.56c.467 0 1.736 0 1.736.628v4.703h-5.751v-4.703c0-.628 1.27-.628 1.736-.628v-.56c-1.848.068-3.996.068-5.844 0v.56c.466 0 1.736 0 1.736.628v9.592c0 .628-1.289.628-1.736.628v.561c1.83-.068 4.015-.068 5.844 0v-.561c-.466 0-1.736 0-1.736-.628v-4.278h5.751v4.278c0 .612-1.288.628-1.736.628v.561c1.83-.068 4.015-.068 5.845 0v-.561c-.467 0-1.756 0-1.756-.628v-9.592c0-.628 1.289-.628 1.756-.628v-.56c-1.849.068-3.996.068-5.845 0m12.3607 4.4984c-1.774-.152-3.212-.271-3.212-2.275 0-.814.28-1.629 1.344-1.629 1.476 0 1.868 1.222 1.868 2.343zm1.382-4.532c-.691 0-1.364.101-1.364.865-.821-.713-1.643-1.001-2.783-1.001-1.81 0-2.725.832-2.725 2.478 0 2.802 3.417 2.614 5.49 2.751v1.29c0 .917-.467 1.426-1.513 1.426-1.195 0-1.549-.543-1.549-1.545 0-.441-.374-.526-.766-.526-.598-.017-1.028.017-1.028.696 0 1.596 1.85 1.935 3.25 1.935 2.184 0 3.753-.288 3.753-2.58v-3.888c0-1.154.112-1.307 1.402-1.325v-.542c-.73 0-1.458-.034-2.167-.034m9.3731 5.7376c-1.643 0-.337 1.8-1.457 1.8-1.213 0-1.512-2.071-1.512-2.869v-3.447c0-.645 1.083-.645 1.569-.645v-.543c-1.719.05-3.493.068-5.211 0v.543c.467 0 1.476.034 1.476.645v5.79c0 .61-.99.644-1.476.662l-.018.509c1.195 0 2.409-.017 3.604.034v-1.291l.037.018c.448.798 1.214 1.426 2.241 1.426 1.084 0 1.737-.595 1.737-1.58 0-.645-.187-1.052-.99-1.052m8.7197 0c-1.643 0-.337 1.8-1.457 1.8-1.213 0-1.512-2.071-1.512-2.869v-3.447c0-.645 1.083-.645 1.569-.645v-.543c-1.719.05-3.493.068-5.211 0v.543c.467 0 1.476.034 1.476.645v5.79c0 .61-.99.644-1.476.662l-.018.509c1.195 0 2.409-.017 3.604.034v-1.291l.037.018c.448.798 1.214 1.426 2.241 1.426 1.084 0 1.737-.595 1.737-1.58 0-.645-.187-1.052-.99-1.052m4.6303 4.041c-.766 0-1.232.543-1.232 1.205s.486 1.189 1.232 1.189c.747 0 1.233-.544 1.233-1.189 0-.662-.486-1.205-1.233-1.205m-2.558-9.745v.543c.467 0 1.475.051 1.475.645v5.824c0 .56-1.046.576-1.475.594v.543c1.196 0 2.446-.051 3.642.017v-6.978c0-.594 1.027-.645 1.493-.645v-.543c-1.68.068-3.454.068-5.135 0m9.5044-.1696c-1.027 0-2.091.169-3.062.475v2.529h.84c.037-1.307.635-2.478 2.26-2.478.951 0 1.96.407 1.96 1.392 0 2.004-4.911 1.069-4.911 3.99 0 1.867 1.568 2.597 3.417 2.597.915 0 1.793-.169 2.652-.458v-2.139h-.766c-.131 1.188-.579 2.037-2.035 2.037-.897 0-1.531-.339-1.531-1.206 0-1.986 4.93-.798 4.93-4.091 0-1.918-1.943-2.648-3.754-2.648m15.1617 6.2807h-1.605v-5.501h1.194c2.129 0 3.212.867 3.212 2.836 0 1.834-.728 2.665-2.801 2.665m-.13 5.281c-.486 0-.991 0-1.475-.052v-4.617h1.549c1.7 0 2.278.832 2.278 2.308 0 1.579-.541 2.361-2.352 2.361m.822-11.392c-2.13 0-4.277.068-6.406 0v.56c.429 0 1.736.05 1.736.628v9.592c0 .594-1.288.646-1.736.628l-.018.56c2.221-.067 4.462 0 6.685 0 2.109 0 3.753-.492 3.753-2.682 0-1.782-1.307-2.563-3.099-2.784v-.068c2.222-.136 3.753-.934 3.753-3.124 0-2.478-2.298-3.31-4.668-3.31m12.0987 4.4983c-1.774-.152-3.212-.271-3.212-2.275 0-.814.281-1.629 1.345-1.629 1.475 0 1.867 1.222 1.867 2.343zm1.382-4.532c-.69 0-1.363.101-1.363.865-.821-.713-1.644-1.001-2.783-1.001-1.811 0-2.726.832-2.726 2.478 0 2.802 3.418 2.614 5.49 2.751v1.29c0 .917-.467 1.426-1.512 1.426-1.196 0-1.55-.543-1.55-1.545 0-.441-.373-.526-.766-.526-.598-.017-1.027.017-1.027.696 0 1.596 1.849 1.935 3.249 1.935 2.185 0 3.754-.288 3.754-2.58v-3.888c0-1.154.112-1.307 1.401-1.325v-.542c-.729 0-1.458-.034-2.167-.034m8.8505.0336v.526c.467.017 1.363.068 1.363.662v4.363c0 1.052-.205 1.936-1.569 1.936-1.568 0-2.129-1.223-2.129-2.462v-3.837c0-.543.934-.645 1.364-.645l.018-.527c-1.624.069-3.399.052-5.023-.016v.526c.486.017 1.475.034 1.475.662v5.773c0 .611-.989.645-1.475.661v.527c1.195 0 2.39-.017 3.586.034v-1.205h.037c.859.933 1.717 1.358 3.081 1.358 2.036 0 2.801-.9 2.801-2.682v-4.466c0-.594.99-.645 1.457-.645v-.543c-1.625.05-3.361.068-4.986 0m11.7262.0166v.526c.149 0 .672-.016.616.221-.056.238-.448.578-.654.849-.522.645-1.027 1.29-1.568 1.918-.019.018-.243.357-.243.357l-.747-.662v-2.088c0-.679.953-.595 1.456-.595v-.542c-1.661.067-3.417.067-5.078 0v.542c.447 0 1.455.068 1.455.646v10.033c0 .611-.952.645-1.437.663l-.018.526c1.194 0 2.427-.034 3.622.034l-.019-8.438s2.988 3.175 2.988 3.48c0 .136-.69.17-.821.17v.492h3.698v-.475h-.225c-.411 0-1.251-.017-1.55-.272-.747-.627-1.979-2.105-1.979-2.105l3.417-4.074c.373-.441.971-.68 1.551-.696v-.526c-1.476.084-3.008.016-4.464.016m-106.972 15.2821c-.939 0-1.7.776-1.7 1.73 0 .956.761 1.729 1.7 1.729s1.701-.773 1.701-1.729c0-.954-.762-1.73-1.701-1.73m0 3.739c-1.109 0-2.007-.899-2.007-2.009 0-1.108.898-2.008 2.007-2.008 1.108 0 2.007.9 2.007 2.008 0 1.11-.899 2.009-2.007 2.009"></path><path fill="#0079c1" d="M464.1203 130.6632v.799h.483c.409 0 .595-.122.595-.401s-.186-.398-.595-.398h-.483m1.376.389c0 .447-.26.651-.762.651h-.893v-2.305h.279v1.022h.483l.65-1.022h.336l-.689 1.022c.37.059.596.311.596.632"></path></g></svg>