<svg xml:space="preserve" style="enable-background:new 0 0 841.89 595.28;" viewBox="0 0 841.89 595.28" y="0px" x="0px" xmlns:xlink="http://www.w3.org/1999/xlink" xmlns="http://www.w3.org/2000/svg" id="katman_1" version="1.0">
<style type="text/css">
	.st0{fill:#15375A;}
	.st1{fill-rule:evenodd;clip-rule:evenodd;fill:#FFFFFF;}
	.st2{fill:#FFFFFF;filter:url(#Adobe_OpacityMaskFilter);}
	.st3{mask:url(#mask0_1_55_1_);}
</style>
<rect height="481.89" width="481.89" class="st0" y="56.36" x="180.47"></rect>
<path d="M282.8,366.83c-1.35-5.65-4.77-9.78-11.46-9.78c-9.85,0-13.98,9.29-13.98,18.73c0,9.43,4.12,18.72,13.98,18.72
	c7.15,0,11.08-5.71,11.72-12.87h7.86c-0.64,11.77-8.44,19.9-19.58,19.9c-13.78,0-22.03-11.7-22.03-25.75
	c0-14.04,8.24-25.75,22.03-25.75c10.37,0.07,18.55,6.2,19.51,16.8H282.8z" class="st1"></path>
<path d="M295.62,364.76h6.89v6.88h0.13c0.84-3.79,5.22-7.85,9.73-7.85c1.67,0,2.12,0.14,2.77,0.21v7.57
	c-1.03-0.14-2.13-0.34-3.15-0.34c-5.02,0-9.02,4.34-9.02,12.19v16.93h-7.34V364.76z" class="st1"></path>
<path d="M339.54,379.42c-0.26-4.96-3.41-9.43-8.37-9.43c-5.09,0-8.57,4.13-8.76,9.43H339.54z M322.41,384.59
	c0,5.58,2.83,10.53,8.95,10.53c4.25,0,6.83-2,8.11-5.92h6.96c-1.61,7.78-7.79,12.12-15.07,12.12c-10.43,0-16.29-7.78-16.29-18.73
	c0-10.12,6.18-18.8,16.1-18.8c10.5,0,16.94,10.12,15.71,20.79H322.41z" class="st1"></path>
<path d="M365.81,395.12c6.57,0,9.34-6.4,9.34-12.6c0-7.85-3.54-12.53-9.21-12.53c-6.89,0-9.34,6.54-9.34,12.94
	C356.6,389.06,359.44,395.12,365.81,395.12z M382.24,400.35h-6.96v-4.82h-0.13c-1.93,4.06-6.12,5.79-10.3,5.79
	c-10.5,0-15.59-8.33-15.59-19c0-12.88,7.15-18.52,14.43-18.52c4.19,0,8.82,1.65,11.08,5.58h0.13V351.2h7.34V400.35z" class="st1"></path>
<defs>
	<filter height="214.36" width="364.84" y="187.16" x="250.43" filterUnits="userSpaceOnUse" id="Adobe_OpacityMaskFilter">
		<feColorMatrix values="1 0 0 0 0  0 1 0 0 0  0 0 1 0 0  0 0 0 1 0" type="matrix"></feColorMatrix>
	</filter>
</defs>
<mask id="mask0_1_55_1_" height="214.36" width="364.84" y="187.16" x="250.43" maskUnits="userSpaceOnUse">
	<path d="M249.31,401.52h365.96V187.16H249.31V401.52z" class="st2"></path>
</mask>
<g class="st3">
	<path d="M388.81,400.35h7.34v-35.59h-7.34V400.35z M388.81,358.63h7.34v-7.44h-7.34V358.63z" class="st1"></path>
	<path d="M399.17,364.76h5.54v-10.67h7.34v10.67h6.63v5.85h-6.63v19c0,3.24,0.26,4.89,3.54,4.89
		c1.03,0,2.06,0,3.09-0.27v6.06c-1.61,0.14-3.16,0.41-4.77,0.41c-7.66,0-9.08-3.17-9.21-9.09v-20.99h-5.54V364.76z" class="st1"></path>
	<path d="M437.56,351.2h8.05v28.64c0,6.61,0.39,14.25,10.82,14.25c10.43,0,10.82-7.64,10.82-14.25V351.2h8.05v31.46
		c0,12.6-7.53,18.86-18.87,18.86c-11.34,0-18.87-6.26-18.87-18.86V351.2z" class="st1"></path>
	<path d="M481.29,364.76h6.96v5.23l0.13,0.14c2.19-3.92,5.99-6.34,10.37-6.34c7.21,0,11.79,4.13,11.79,12.12v24.44
		h-7.34v-22.37c-0.13-5.58-2.19-7.99-6.51-7.99c-4.89,0-8.05,4.13-8.05,9.36v21h-7.34V364.76z" class="st1"></path>
	<path d="M516.84,400.35h7.34v-35.59h-7.34V400.35z M516.84,358.63h7.34v-7.44h-7.34V358.63z" class="st1"></path>
	<path d="M554.64,382.52c0-6.13-2.9-12.53-9.47-12.53c-6.57,0-9.47,6.4-9.47,12.53c0,6.2,2.9,12.6,9.47,12.6
		C551.74,395.12,554.64,388.72,554.64,382.52z M528.36,382.52c0-10.88,6.12-18.73,16.81-18.73c10.69,0,16.81,7.85,16.81,18.73
		c0,10.95-6.12,18.8-16.81,18.8C534.48,401.32,528.36,393.47,528.36,382.52z" class="st1"></path>
	<path d="M565.85,364.76h6.96v5.23l0.13,0.14c2.19-3.92,5.99-6.34,10.37-6.34c7.21,0,11.79,4.13,11.79,12.12v24.44
		h-7.34v-22.37c-0.13-5.58-2.19-7.99-6.51-7.99c-4.89,0-8.05,4.13-8.05,9.36v21h-7.34V364.76z" class="st1"></path>
	<path d="M250.43,260.02h38.74v11.27h-23.65v13.61h21.98v11.26h-21.98v22.2h-15.09V260.02z" class="st1"></path>
	<path d="M293.08,260.02h41.09v11.18h-26.08v12.15h24.56v11.18h-24.56v12.48h26.68v11.35h-41.69V260.02z" class="st1"></path>
	<path d="M354.86,307.1h6.52c10.08-0.08,16.52-4.7,16.52-18.32c0-17.75-12.43-17.75-17.06-17.75l-5.99-0.08V307.1z
		 M339.32,259.86h23.12c6.52,0,15.16,0.73,20.85,4.86c8.11,5.92,10.31,15.56,10.31,24.23c0,12.97-3.86,22.53-14.93,27.15
		c-5.61,2.27-12.28,2.27-16.07,2.27h-23.27V259.86z" class="st1"></path>
	<path d="M397.39,260.02h41.09v11.18H412.4v12.15h24.56v11.18H412.4v12.48h26.68v11.35h-41.69V260.02z" class="st1"></path>
	<path d="M458.34,284.98h5.69c3.33,0,5,0,6.29-0.49c3.34-1.13,4.02-4.78,4.02-6.64c0-7.21-5.91-7.21-10.31-7.21h-5.69
		V284.98z M443.1,259.86h25.32c9.85,0,13.57,0.65,16.83,4.21c1.67,1.78,3.79,5.02,3.79,11.35c0,6.4-2.42,9.16-5,10.86
		c-3.49,2.35-6.82,2.75-8.34,3v0.32c10.62,0.32,11.22,5.35,12.43,14.34c0.53,3.97,1.29,10.29,2.58,14.43h-16.45
		c-0.91-3.57-1.29-8.02-1.82-13.21c-0.68-7.05-0.91-9.64-7.73-9.64h-6.37v22.85H443.1V259.86z" class="st1"></path>
	<path d="M529.06,295.83l-7.05-24.55h-0.23l-7.58,24.55H529.06z M513.37,259.86h18.5l21.6,58.51h-17.13l-3.79-11.75
		h-21.91l-3.71,11.75h-15.16L513.37,259.86z" class="st1"></path>
	<path d="M555.06,259.86h15.39v47h24.56v11.51h-39.95V259.86z" class="st1"></path>
	<path d="M250.43,195.14h20.92l18.5,43.6l-0.15-43.6h13.27v58.51H282.5l-18.88-45.46l0.15,45.46h-13.34V195.14z" class="st1"></path>
	<path d="M344.33,231.12l-7.05-24.55h-0.23l-7.58,24.55H344.33z M328.64,195.14h18.5l21.61,58.51h-17.13l-3.79-11.75
		h-21.91l-3.71,11.75h-15.16L328.64,195.14z" class="st1"></path>
	<path d="M357.41,195.14h16.75l12.43,42.38l13.12-42.38h15.08l-19.94,58.51h-18.12L357.41,195.14z" class="st1"></path>
	<path d="M431.81,195.14l11.98,24.55l12.36-24.55h15.62l-21.38,37.84v20.66h-15.31v-21.39l-20.85-37.11H431.81z" class="st1"></path>
	<path d="M250.43,340.54H595v-15.38H250.43V340.54z" class="st1"></path>
	<path d="M548.51,246.49h-1.03c2.38-2.7,4.36-5.92,5.86-9.5h3.36C554.62,240.68,551.83,243.9,548.51,246.49z
		 M545.4,248.65L545.4,248.65C545.39,248.65,545.39,248.65,545.4,248.65z M512.4,248.65L512.4,248.65L512.4,248.65
		C512.41,248.65,512.41,248.65,512.4,248.65z M501.1,236.99h3.36c1.49,3.58,3.49,6.8,5.87,9.5h-1.02
		C505.99,243.9,503.19,240.68,501.1,236.99z M509.28,196.13h1.05c-1.78,2-3.36,4.3-4.66,6.86l-0.03-0.01l-0.46,0.97l-0.46,0.97
		l0.03,0.01c-0.1,0.23-0.21,0.45-0.3,0.69h-3.34c0.56-0.99,1.15-1.96,1.81-2.88C504.73,200.22,506.88,198,509.28,196.13z
		 M545.4,193.98L545.4,193.98C545.39,193.97,545.4,193.97,545.4,193.98z M556.71,205.63h-3.36c-1.5-3.59-3.48-6.8-5.86-9.5h1.03
		C551.83,198.72,554.62,201.95,556.71,205.63z M556.42,222.38h4.39c-0.15,4.44-1.2,8.65-2.99,12.46h-3.64
		C555.53,231,556.3,226.8,556.42,222.38z M543.57,234.84c0.75-3.82,1.18-8.02,1.25-12.46h9.44c-0.12,4.44-0.95,8.65-2.36,12.46
		H543.57z M538.57,248.65h3.53c-1.9,1.46-3.96,2.6-6.14,3.4C536.88,251.09,537.75,249.95,538.57,248.65z M519.24,248.65
		c0.8,1.3,1.68,2.44,2.6,3.4c-2.18-0.8-4.24-1.94-6.14-3.4H519.24z M503.54,222.38h9.45c0.06,4.43,0.49,8.64,1.25,12.46h-8.33
		C504.49,231.03,503.66,226.82,503.54,222.38z M501.39,220.23h-4.37c0.13-4.36,1.15-8.57,2.97-12.45h3.63
		C502.25,211.7,501.51,215.93,501.39,220.23z M514.26,207.78c-0.77,3.92-1.2,8.15-1.27,12.45h-9.44c0.12-4.33,0.92-8.56,2.36-12.45
		H514.26z M538.57,193.98c-0.82-1.31-1.69-2.45-2.61-3.4c2.18,0.8,4.24,1.95,6.14,3.4H538.57z M529.97,220.23v-12.45h11.36
		c0.79,3.83,1.25,8.04,1.32,12.45H529.97z M529.97,234.84v-12.46h12.69c-0.07,4.41-0.53,8.64-1.32,12.46H529.97z M529.97,246.49
		v-9.5h10.87c-0.91,3.67-2.13,6.9-3.56,9.5H529.97z M529.97,248.65h5.97c-1.78,2.53-3.81,4.14-5.97,4.55V248.65z M527.83,248.65
		v4.55c-2.15-0.41-4.19-2.02-5.98-4.55H527.83z M527.83,236.99v9.5h-7.3c-1.43-2.6-2.65-5.83-3.57-9.5H527.83z M527.83,222.38v12.46
		h-11.36c-0.79-3.82-1.26-8.05-1.32-12.46H527.83z M527.83,207.78v12.45h-12.68c0.06-4.32,0.51-8.55,1.31-12.45H527.83z
		 M537.28,196.13c1.43,2.6,2.64,5.84,3.56,9.5h-10.87v-9.5H537.28z M529.97,193.98v-4.56c2.16,0.41,4.2,2.02,5.97,4.56H529.97z
		 M527.83,189.43v4.55h-5.99C523.66,191.42,525.71,189.83,527.83,189.43z M519.25,193.98h-3.48c1.88-1.44,3.91-2.57,6.04-3.36
		C520.9,191.56,520.05,192.69,519.25,193.98z M517.13,204.86c0.9-3.41,2.05-6.34,3.37-8.73h7.33v9.5h-10.89
		C517,205.37,517.06,205.1,517.13,204.86z M554.27,220.23h-9.44c-0.06-4.44-0.5-8.64-1.25-12.45h8.33
		C553.31,211.58,554.15,215.8,554.27,220.23z M560.8,220.23h-4.39c-0.11-4.41-0.89-8.62-2.24-12.45h3.64
		C559.61,211.58,560.66,215.8,560.8,220.23z M551.02,205.63h-7.92c-0.84-3.59-1.98-6.81-3.34-9.5h4.77
		C547.16,198.72,549.37,201.95,551.02,205.63z M507.12,204.87c1.62-3.41,3.73-6.35,6.17-8.74h4.77c-1.04,2.06-1.96,4.46-2.73,7.14
		l-0.01,0l-0.28,1.04l-0.27,1.04h0.02c-0.02,0.09-0.05,0.18-0.07,0.28h-7.94C506.9,205.38,507,205.12,507.12,204.87z M497,222.38
		h4.38c0.12,4.41,0.9,8.62,2.24,12.46h-3.63C498.2,231.04,497.14,226.82,497,222.38z M506.78,236.99h7.91
		c0.85,3.6,1.99,6.81,3.35,9.5h-4.79C510.65,243.9,508.44,240.68,506.78,236.99z M544.54,246.49h-4.77c1.36-2.69,2.49-5.9,3.34-9.5
		h7.92C549.37,240.68,547.16,243.9,544.54,246.49z M562.99,221.31c0-17.77-13.67-32.41-31.06-33.94c-0.99-0.14-2-0.21-3.02-0.21
		c-0.96,0-1.91,0.08-2.85,0.2c-9.54,0.81-18.38,5.63-24.23,13.28l-0.02-0.02l-0.63,0.87l-0.62,0.87l0.03,0.03
		c-3.75,5.61-5.75,12.12-5.75,18.92c0,17.77,13.67,32.41,31.06,33.94c0.99,0.14,2.01,0.21,3.03,0.21c1.03,0,2.03-0.07,3.02-0.21
		C549.31,253.72,562.99,239.08,562.99,221.31z" class="st1"></path>
	<path d="M605.61,331.68h1.06c1.21,0,2.23-0.44,2.23-1.57c0-0.81-0.59-1.61-2.23-1.61c-0.48,0-0.81,0.04-1.06,0.07
		V331.68z M605.61,336.77h-1.46v-9.19c0.77-0.11,1.5-0.22,2.6-0.22c1.39,0,2.31,0.29,2.86,0.7c0.55,0.4,0.84,1.03,0.84,1.9
		c0,1.21-0.81,1.94-1.79,2.23v0.07c0.81,0.15,1.35,0.88,1.54,2.23c0.22,1.43,0.44,1.98,0.58,2.27h-1.54
		c-0.22-0.3-0.44-1.14-0.62-2.34c-0.22-1.17-0.81-1.61-1.98-1.61h-1.02V336.77z M607.14,325.02c-3.63,0-6.59,3.11-6.59,6.96
		c0,3.92,2.97,6.99,6.63,6.99c3.66,0.04,6.59-3.08,6.59-6.96c0-3.88-2.93-6.99-6.59-6.99H607.14z M607.18,323.73
		c4.5,0,8.09,3.66,8.09,8.24c0,4.65-3.59,8.28-8.13,8.28c-4.51,0-8.17-3.63-8.17-8.28c0-4.58,3.66-8.24,8.17-8.24H607.18z" class="st1"></path>
</g>
</svg>
