<?xml version="1.0" encoding="UTF-8" standalone="yes"?>
<svg version="1.0" id="Layer_1" xmlns="http://www.w3.org/2000/svg" xmlns:xlink="http://www.w3.org/1999/xlink" x="0px" y="0px" viewBox="0 0 890 625" style="enable-background:new 0 0 890 625;" xml:space="preserve">
  <style type="text/css">&#xD;
	.st0{fill:#003366;}&#xD;
</style>
  <polygon class="st0" points="723,257.5 723,265.8 721.2,265.8 721.2,259.5 720.5,259.5 721.3,257.5 "/>
  <polygon class="st0" points="686.7,277.5 686.6,279.9 688.9,280.9 686.5,281.5 686.4,284 685,282 682.6,282.5 684.1,280.6 &#xD;&#xA;&#x9;682.8,278.5 685.1,279.4 "/>
  <polygon class="st0" points="787.9,277.5 788,279.9 785.8,280.9 788.1,281.5 788.3,284 789.6,282 792,282.5 790.5,280.6 &#xD;&#xA;&#x9;791.8,278.5 789.5,279.4 "/>
  <polygon class="st0" points="696.4,332.4 697.9,331.5 699.8,330.6 702,329.4 700.8,331.6 699.8,330.6 697.9,331.5 699.9,333.5 &#xD;&#xA;&#x9;699.1,335 700.6,336.6 705,328 703.3,326.4 694.8,330.9 "/>
  <polygon class="st0" points="784.3,325.1 783.1,323.7 781.8,322.2 780.2,320.3 782.5,320.9 781.8,322.2 783.1,323.7 784.6,321.4 &#xD;&#xA;&#x9;786.3,321.9 787.5,320 778.1,317.7 776.9,319.7 783.2,326.9 "/>
  <polygon class="st0" points="737.3,295.5 759.6,317.4 760.2,316.3 737.3,293.9 714.4,316.3 715,317.4 "/>
  <polygon class="st0" points="160.4,217.3 160.4,262.8 238.2,262.8 238.2,322.8 160.4,322.8 160.4,429.8 89.6,429.8 89.6,157.2 &#xD;&#xA;&#x9;246.1,157.2 246.1,217.3 "/>
  <path class="st0" d="M727.2,260.1c0.1,1.8,1.7,3.2,3.5,3.1c0.7,0,1.5-0.2,2.1-0.6c-1.1,2.8-4,1.7-4.6,1.4l-0.8,1.5&#xD;&#xA;&#x9;c1,1,7.3,1.6,7.3-4.5c0-0.7-0.5-4.1-4-4.1v1.5c0.9-0.2,1.8,0.4,1.9,1.3s-0.4,1.8-1.3,1.9c-0.2,0-0.5,0-0.7,0&#xD;&#xA;&#x9;c-0.9,0.1-1.7-0.5-1.8-1.4c-0.1-0.9,0.5-1.7,1.4-1.8c0.1,0,0.3,0,0.4,0V257C728.9,256.9,727.3,258.3,727.2,260.1L727.2,260.1z"/>
  <path class="st0" d="M740.2,266.2c-1.2,0.1-2.4-0.4-3.3-1.2l1.1-1.1c0.6,0.4,1.3,0.7,2,0.8c0.6,0,1.7-0.3,1.7-1.2&#xD;&#xA;&#x9;c0-0.5-0.4-1.2-2.2-1v-1.4c1.8,0.2,2.3-0.5,2.3-1.1s-0.7-1.1-1.5-1.1c-0.7,0.1-1.4,0.4-1.8,1l-1.2-1.2c0.7-0.9,1.8-1.5,3-1.4&#xD;&#xA;&#x9;c1.8,0,3.2,1.1,3.2,2.5c0,0.8-0.4,1.5-1,1.9c0.6,0.4,1,1.1,1,1.9C743.5,264.9,742.2,266.2,740.2,266.2z"/>
  <path class="st0" d="M749.2,266.2c-1.2,0.1-2.4-0.4-3.3-1.2l1.1-1.1c0.6,0.4,1.3,0.7,2,0.8c0.6,0,1.7-0.3,1.7-1.2&#xD;&#xA;&#x9;c0-0.5-0.4-1.2-2.2-1v-1.4c1.8,0.2,2.3-0.5,2.3-1.1s-0.7-1.1-1.5-1.1c-0.7,0.1-1.4,0.4-1.8,1l-1.2-1.2c0.7-0.9,1.8-1.5,3-1.4&#xD;&#xA;&#x9;c1.8,0,3.2,1.1,3.2,2.5c0,0.8-0.4,1.5-1,1.9c0.6,0.4,1,1.1,1,1.9C752.5,264.9,751.2,266.2,749.2,266.2z"/>
  <path class="st0" d="M722.3,320.7v-4.8h-0.9v5.7h3.1v-2.2h1.5v2.2h3.1v-5.7h1.4c1.7,0,1.7,0.9,2.8,0.9c0.8,0,1.1-0.9,1.7-0.9&#xD;&#xA;&#x9;s0.8,1.1,1.6,1.1s1-1.1,1.6-1.1s0.9,0.9,1.7,0.9c1.1,0,1.5-0.9,3.2-0.9c0.7-0.1,1.4,0.4,1.5,1.1c0,0,0,0,0,0c0,0.1,0,0.3,0,0.4&#xD;&#xA;&#x9;c-0.1,1.9,1.4,3.4,3.2,3.5c1.8,0.1,3.4-1.3,3.5-3.2c0-0.1,0-0.2,0-0.4v-4.9c0-1.9-1.5-3.4-3.3-3.4c0,0,0,0,0,0l0,0v1.2&#xD;&#xA;&#x9;c1.1,0,2,0.9,2,2c0.1,0.9-0.2,1.8-0.7,2.6c0.5,0.8,0.8,1.7,0.7,2.6c0,1.1-0.9,2-2,2s-2-0.9-2-2c-0.1-0.9,0.2-1.9,0.8-2.6&#xD;&#xA;&#x9;c-0.5-0.8-0.8-1.7-0.8-2.6c0-1.1,0.9-2,2-2v-1.2c-1.9,0-3.4,1.5-3.4,3.4l0,0l0,0c0.1,0.7-0.4,1.4-1.1,1.5c0,0,0,0,0,0&#xD;&#xA;&#x9;c-0.1,0-0.3,0-0.4,0c-1.7,0-2-0.9-3.2-0.9c-0.8,0-1.1,0.8-1.7,0.8s-0.8-1-1.6-1s-1,1-1.6,1s-0.9-0.8-1.7-0.8c-1.1,0-1.1,0.9-2.8,0.9&#xD;&#xA;&#x9;h-10.6v1.8h8.2v4.8h-1.2v-2.2h-3.4v2.2H722.3z"/>
  <path class="st0" d="M780.1,293.6c0,23.6-19.1,42.7-42.7,42.7l0,0v-2.1c22.4,0,40.6-18.2,40.6-40.6s-18.2-40.6-40.6-40.6&#xD;&#xA;&#x9;c-22.4,0-40.6,18.2-40.6,40.6l0,0l0,0c0,22.4,18.2,40.6,40.6,40.6v2.1c-23.6,0-42.8-19.1-42.8-42.8s19.1-42.8,42.8-42.8&#xD;&#xA;&#x9;S780.1,269.9,780.1,293.6L780.1,293.6z"/>
  <path class="st0" d="M781.2,293.6c0-24.3-19.7-43.9-43.9-43.9c-24.3,0-43.9,19.7-43.9,43.9c0,24.2,19.6,43.9,43.9,43.9l0,0v1&#xD;&#xA;&#x9;c-24.9,0-45-20.1-45-45s20.1-45,45-45s45,20.1,45,45l0,0l0,0c0,24.9-20.1,45-45,45v-1C761.5,337.5,781.2,317.8,781.2,293.6&#xD;&#xA;&#x9;L781.2,293.6z"/>
  <path class="st0" d="M798.5,293.6c0,33.8-27.4,61.1-61.2,61.1v2.1c34.9,0,63.2-28.3,63.2-63.2c0-34.9-28.3-63.2-63.2-63.2&#xD;&#xA;&#x9;c-34.9,0-63.2,28.3-63.2,63.2l0,0c0,34.9,28.3,63.2,63.2,63.2v-2.1c-33.8,0-61.1-27.4-61.1-61.2s27.4-61.1,61.2-61.1&#xD;&#xA;&#x9;C771.1,232.4,798.5,259.8,798.5,293.6L798.5,293.6z"/>
  <path class="st0" d="M797.1,293.6c0-33-26.8-59.8-59.8-59.9s-59.8,26.8-59.8,59.8s26.8,59.8,59.8,59.9c0,0,0,0,0,0v-1.1&#xD;&#xA;&#x9;c-32.4,0-58.7-26.3-58.7-58.7s26.3-58.7,58.7-58.7c32.4,0,58.7,26.3,58.7,58.7c0,0,0,0,0,0l0,0c0,32.4-26.3,58.7-58.7,58.7v1.1&#xD;&#xA;&#x9;C770.4,353.4,797.1,326.6,797.1,293.6L797.1,293.6L797.1,293.6z"/>
  <path class="st0" d="M726.1,238.4l4.9,8.4c-0.7,0.1-1.5,0.2-2.2,0.4l-0.9-1.5l-2.7,0.6l0.2-2.1l1.4-0.3l-1.2-2.1l-0.2,2.5l-0.2,2.1&#xD;&#xA;&#x9;l-0.1,1.7c-0.7,0.2-1.4,0.4-2.1,0.6l0.8-9.6L726.1,238.4z"/>
  <path class="st0" d="M776.7,254.7l-2.7,2.4c-0.3,0.3-0.4,0.8-0.1,1.2l2,2.3l-1.2,1l-2.6-2.9l-1.4,1.3l3.1,3.6&#xD;&#xA;&#x9;c0.4,0.4,1.1,0.5,1.5,0.1l2.7-2.3c0.3-0.3,0.4-0.8,0.1-1.2l-2-2.3l1.2-1l2.6,3l1.5-1.3l-3.2-3.6&#xD;&#xA;&#x9;C777.9,254.4,777.2,254.3,776.7,254.7C776.7,254.7,776.7,254.7,776.7,254.7z"/>
  <path class="st0" d="M694.9,272.8c-0.3,0.6-0.5,1.1-0.8,1.7l-8.1-4l2.6-5.1l1.8,0.9l-1.7,3.4l1.4,0.7l1.4-2.9l1.8,0.9l-1.4,2.9&#xD;&#xA;&#x9;L694.9,272.8z"/>
  <path class="st0" d="M774.2,251c0.5,0.4,0.6,1.2,0.2,1.7c0,0,0,0,0,0l0,0l-4.2,5.1c-0.4,0.5-1.2,0.6-1.7,0.2l0,0&#xD;&#xA;&#x9;c-0.8-0.6-1.5-1.3-1.7-1.5s-0.9-0.7-1.6-1.2c-0.5-0.4-0.6-1.2-0.2-1.7c0,0,0,0,0,0l0,0l4.2-5.1c0.4-0.5,1.2-0.6,1.7-0.2l-0.7,2&#xD;&#xA;&#x9;l-3.2,4.1l2.2,1.8l3.3-4l-2.2-1.8l0.7-2L774.2,251z"/>
  <path class="st0" d="M717.2,247l-1.8,0.8l-0.8-1.8l2-0.9c0.2-0.1,0.4-0.4,0.2-0.6l0,0l-0.2-0.5c-0.1-0.2-0.4-0.4-0.6-0.3&#xD;&#xA;&#x9;c0,0,0,0,0,0l0,0l-2,0.9l0.6,1.4l0.8,1.8l1.4,3.2l-1.8,0.9l-3.7-8.3l5.4-2.4c0.4-0.2,0.9,0,1.1,0.4l0,0l1.2,2.7c0.1,0.4,0,0.8-0.4,1&#xD;&#xA;&#x9; M718.6,245.3C718.6,245.4,718.6,245.4,718.6,245.3L718.6,245.3c0.4-0.1,0.9,0.1,1,0.4l0,0c0.2,0.6,1,2.2,1,2.4&#xD;&#xA;&#x9;c0.1,0.3,0.4,0.6,0.8,0.5l0.1,0.1c-0.7,0.3-1.4,0.5-2.1,0.9c-0.3-0.1-0.5-0.3-0.6-0.6c-0.1-0.3-0.5-1.4-0.7-1.8&#xD;&#xA;&#x9;c-0.2-0.3-0.5-0.4-0.8-0.2L718.6,245.3z"/>
  <path class="st0" d="M738.4,246.4v-2l-3.7,0.1l-0.3-7.1l-1.9,0.1l0.3,9.1C734.8,246.4,736.6,246.3,738.4,246.4"/>
  <path class="st0" d="M699.1,262.6l1.6,1.2c-1.1,1.4-2.2,2.9-3.3,4.5L690,263l3.3-4.7l1.6,1.2l-2.2,3l1.3,0.9l1.9-2.6l1.6,1.2&#xD;&#xA;&#x9;l-1.8,2.6l1.3,0.9L699.1,262.6z"/>
  <path class="st0" d="M701.9,262.3l-6.5-6.5l0.9-0.9l1.9,0.9l3.6,3.7l2-2l-3.7-3.7l-2,2l-1.9-0.9l3-3c0.5-0.5,1.2-0.5,1.7,0&#xD;&#xA;&#x9;c0,0,0,0,0,0l0,0l4.7,4.7c0.5,0.5,0.5,1.2,0,1.7c0,0,0,0,0,0l0,0c-0.7,0.7-1.4,1.3-1.6,1.5S702.5,261.6,701.9,262.3z"/>
  <path class="st0" d="M711.9,251.5l1.1,1.6c-1.5,1-3,2-4.6,3.1l-5.2-7.5l4.7-3.3l1.1,1.6l-3.1,2.1l0.9,1.3l2.7-1.8l1.1,1.6l-2.6,1.8&#xD;&#xA;&#x9;l0.9,1.3L711.9,251.5z"/>
  <path class="st0" d="M742.4,246.5l1.6-9l1.2,0.2l0.4,2l-0.9,5.1l2.8,0.5l0.9-5.1l-2.8-0.5l-0.4-2l4.2,0.7c0.7,0.1,1.1,0.7,1,1.4l0,0&#xD;&#xA;&#x9;l-1.2,6.6c-0.1,0.7-0.8,1.1-1.4,1l0,0c-1-0.2-1.9-0.4-2.2-0.5L742.4,246.5z"/>
  <path class="st0" d="M757.1,248.5l-0.7,1.8c-1.7-0.7-3.3-1.4-5.2-2l3.2-8.5l5.4,2l-0.7,1.9l-3.5-1.3l-0.6,1.5l3,1.1l-0.7,1.9l-3-1.1&#xD;&#xA;&#x9;l-0.6,1.5L757.1,248.5z"/>
  <path class="st0" d="M761.2,248.8l1-1.8l1.9,1.1c0.2,0.1,0.5,0.1,0.7-0.2l0,0l0.3-0.5c0.1-0.2,0-0.5-0.2-0.7l-1.9-1.1l-0.8,1.4&#xD;&#xA;&#x9;L761.2,248.8l-1.7,3.1c-0.7-0.4-1.3-0.7-1.9-1l4.5-8l5.2,2.9c0.4,0.2,0.6,0.7,0.4,1.1c0,0,0,0,0,0l0,0l-2,3.4&#xD;&#xA;&#x9;c-0.2,0.4-0.7,0.5-1.1,0.3L761.2,248.8z"/>
  <path class="st0" d="M775.9,266.4l7.5-5.1l1.1,1.6L777,268c-0.2-0.3-0.3-0.5-0.5-0.8C776.3,266.9,776.1,266.6,775.9,266.4z"/>
  <path class="st0" d="M786,269.6l-6.3,3.2c-0.1-0.3-0.3-0.6-0.4-0.9l-0.4-0.9l6.3-3.2l-0.9-1.8l1.8-0.9l2.7,5.2l-1.7,0.9L786,269.6z"/>
  <path class="st0" d="M716.4,343.2l-0.2,0.5l-2.6-1.2l2.1-4.7l2.6,1.2l-0.2,0.5l1.8,0.8l0.6-1.2c0.3-0.6,0-1.3-0.6-1.6l0,0&#xD;&#xA;&#x9;c-0.9-0.4-1.8-0.8-2-0.9s-1-0.5-1.8-0.9c-0.6-0.3-1.3,0-1.6,0.6c0,0,0,0,0,0l0,0l-2.8,6c-0.3,0.6,0,1.4,0.6,1.6l3.9,1.8&#xD;&#xA;&#x9;c0.6,0.3,1.3,0,1.6-0.6l0,0l0.5-1.2L716.4,343.2z"/>
  <path class="st0" d="M690.2,291.6l-9-0.6l0.1-1.9l9,0.6c0,0.3,0,0.6-0.1,1S690.3,291.3,690.2,291.6z"/>
  <path class="st0" d="M689.9,302.8l-3.5,0.9c-0.4,0.1-0.7,0.6-0.6,1l0.8,3l-1.5,0.4l-1-3.8l-1.9,0.5l1.2,4.6c0.2,0.6,0.7,0.9,1.3,0.7&#xD;&#xA;&#x9;l3.5-0.9c0.4-0.1,0.7-0.6,0.6-1l-0.8-3l1.5-0.4l1,3.8l1.9-0.5l-1.2-4.7C691.1,303,690.5,302.7,689.9,302.8&#xD;&#xA;&#x9;C690,302.8,689.9,302.8,689.9,302.8L689.9,302.8z"/>
  <path class="st0" d="M685.3,299.7l5.2-0.5l0.1,1c0,0.3,0,0.7,0.1,1l-9,0.9l-0.2-1.9l5.3-4l-5.7,0.2v-2l9-0.3v2L685.3,299.7z"/>
  <path class="st0" d="M687,318.3c0.3,0.6,1,0.9,1.6,0.6l0,0l7.2-3.1L695,314l-6.5,2.8l-1.1-2.6l6.5-2.8l-0.8-1.8l-7.2,3.1&#xD;&#xA;&#x9;c-0.6,0.3-0.9,1-0.7,1.6l0,0L687,318.3z"/>
  <path class="st0" d="M700.2,322.6c0.3,0.4,0.2,0.9-0.2,1.2l-2.4,1.7c-0.4,0.2-0.9,0.1-1.1-0.2l0,0 M696.4,325.3&#xD;&#xA;&#x9;C696.4,325.3,696.4,325.4,696.4,325.3c0.2,0.4,0.2,0.9-0.2,1.2c0,0,0,0,0,0l0,0L694,328c-0.3,0.1-0.5,0.5-0.4,0.9l-0.1,0.1l-1.3-1.9&#xD;&#xA;&#x9;c0.1-0.3,0.2-0.6,0.5-0.7c0.3-0.2,1.3-0.8,1.7-1.1c0.3-0.2,0.4-0.7,0.2-1l-1.1-1.6l1.6-1.1l1.2,1.8c0.1,0.2,0.4,0.3,0.7,0.1l0,0&#xD;&#xA;&#x9;l0.5-0.3c0.2-0.2,0.3-0.4,0.1-0.7c0,0,0,0,0,0l0,0l-1.2-1.8l-1.3,0.9l-1.6,1.1l-2.9,2l-1.2-1.7l7.5-5.1c1,1.7,2.1,3.3,3.3,4.8&#xD;&#xA;&#x9;L696.4,325.3z"/>
  <path class="st0" d="M726.6,341.7l0.5-1.9c-1.8-0.4-3.5-0.9-5.3-1.5l-2.5,8.7l5.5,1.6l0.5-1.9l-3.6-1l0.4-1.5l3.1,0.9l0.5-1.9&#xD;&#xA;&#x9;l-3.1-0.9l0.4-1.5L726.6,341.7z"/>
  <path class="st0" d="M709.2,337.8l2.9-4.4l0.8,0.5l0.8,0.5l-5,7.5l-1.6-1.1l0.2-6.7l-3.5,4.5l-1.5-1.2l5.5-7.1l0.8,0.6l0.8,0.6&#xD;&#xA;&#x9;L709.2,337.8z"/>
  <path class="st0" d="M742.5,349.8c-0.7,0.1-1.3-0.4-1.4-1l-0.9-6.6c-0.1-0.7,0.3-1.3,1-1.4l0,0c1-0.1,2-0.2,2.2-0.2s1.1-0.2,2-0.4&#xD;&#xA;&#x9;c0.7-0.1,1.3,0.3,1.4,1c0,0,0,0,0,0v0l0.9,6.6c0.1,0.7-0.3,1.3-1,1.4l0,0l-1-1.8l-0.7-5.1l-2.8,0.4l0.7,5.1l2.8-0.4l1,1.8&#xD;&#xA;&#x9;L742.5,349.8z"/>
  <path class="st0" d="M762.2,333.8c0.4-0.2,1-0.1,1.2,0.4l1.8,3.5c0.2,0.4,0.1,0.9-0.3,1.1l-3.5,1.9l-1-1.8l1.9-1&#xD;&#xA;&#x9;c0.2-0.1,0.3-0.4,0.2-0.7c0,0,0,0,0,0l0,0l-0.3-0.5c-0.1-0.2-0.4-0.3-0.7-0.2l0,0l-1.9,1l0.8,1.4l1,1.8l1.7,3.1&#xD;&#xA;&#x9;c-0.7,0.4-1.3,0.7-1.8,1l-4.3-8.1C758.1,336.1,760.8,334.7,762.2,333.8z"/>
  <path class="st0" d="M788.6,316.8l-6.5-2.8l-0.8,1.8l-1.8-0.8c0.9-1.7,1.7-3.5,2.3-5.4l1.8,0.8l-0.8,1.8l6.5,2.8L788.6,316.8z"/>
  <path class="st0" d="M736.8,347.4v0.6l-2.8-0.1l0.2-5.2l2.8,0.1v0.6l1.9,0.1v-1.4c0-0.7-0.5-1.3-1.2-1.3h-2.2c-0.7,0-1.3,0-2-0.1&#xD;&#xA;&#x9;c-0.7,0-1.2,0.5-1.3,1.1c0,0,0,0,0,0l0,0l-0.3,6.6c0,0.7,0.5,1.3,1.2,1.3l4.3,0.2c0.7,0,1.2-0.5,1.3-1.2l0,0v-1.3L736.8,347.4z"/>
  <path class="st0" d="M754.1,337.8c0.5-0.1,0.9,0.1,1.1,0.6c0,0,0,0,0,0l0,0l0.9,2.9c0.1,0.4-0.1,0.9-0.5,1c0,0,0,0,0,0l0,0&#xD;&#xA;&#x9;c0,0,0,0,0,0.1h0.1c0.4-0.1,0.9,0.1,1,0.5c0,0,0,0,0,0l0,0c0.2,0.6,0.7,2.3,0.8,2.5c0,0.4,0.3,0.6,0.7,0.6v0.1l-2.2,0.7&#xD;&#xA;&#x9;c-0.3-0.2-0.4-0.4-0.5-0.7c-0.1-0.3-0.4-1.5-0.5-1.9c-0.1-0.4-0.5-0.6-0.9-0.5c0,0,0,0,0,0l0,0l-1.9,0.6l-0.6-1.9l2-0.6&#xD;&#xA;&#x9;c0.3-0.1,0.4-0.4,0.3-0.6l-0.2-0.6c-0.1-0.3-0.3-0.4-0.6-0.3l0,0l-2,0.6l0.5,1.5l0.6,1.9l1,3.4l-2,0.6l-2.7-8.6&#xD;&#xA;&#x9;C750.4,339,752.2,338.4,754.1,337.8z"/>
  <path class="st0" d="M770.8,339c-0.5,0.4-1.3,0.3-1.7-0.2l-4.2-5.2c-0.4-0.5-0.3-1.3,0.2-1.7c0.8-0.6,1.6-1.2,1.8-1.3&#xD;&#xA;&#x9;s0.8-0.7,1.5-1.3c0.5-0.4,1.3-0.4,1.7,0.1c0,0,0,0,0,0v0l4.2,5.2c0.4,0.5,0.3,1.3-0.2,1.7l-1.8-1l-3.2-4l-2.2,1.8l3.3,4l2.2-1.8&#xD;&#xA;&#x9;l1.8,1L770.8,339z"/>
  <path class="st0" d="M774.5,322.8c0.3-0.4,0.9-0.4,1.2-0.1c0,0,0,0,0,0l2.2,2c0.3,0.3,0.3,0.8,0.1,1.1 M778.1,325.9L778.1,325.9&#xD;&#xA;&#x9;c0.3-0.3,0.8-0.4,1.1-0.1c0,0,0,0,0,0l0,0c0.5,0.4,1.8,1.6,1.9,1.7c0.2,0.3,0.6,0.4,0.9,0.2l0.1,0.1l-1.5,1.7&#xD;&#xA;&#x9;c-0.3,0-0.6-0.1-0.8-0.3c-0.2-0.2-1.1-1.1-1.4-1.4c-0.3-0.3-0.7-0.2-1,0.1l-1.3,1.5l-1.5-1.3l1.4-1.6c0.2-0.2,0.2-0.5,0-0.7&#xD;&#xA;&#x9;c0,0,0,0,0,0l0,0l-0.5-0.4c-0.2-0.2-0.5-0.2-0.7,0l-1.4,1.6l1.2,1l1.5,1.3l2.6,2.3l-1.4,1.5l-6.8-6c1.4-1.4,2.7-2.8,3.9-4.4&#xD;&#xA;&#x9;L778.1,325.9z"/>
  <path class="st0" d="M782.9,306.3l8.7,2.6l-0.6,1.8l-8.7-2.6c0.1-0.3,0.2-0.6,0.3-0.9L782.9,306.3z"/>
  <path class="st0" d="M789.8,290.7l-5.2,0.2v-2l9-0.3l0.1,1.9l-5.5,3.7l5.7,0.2l-0.1,1.9l-9-0.3v-2L789.8,290.7z"/>
  <path class="st0" d="M792.7,304.7c-0.1,0.7-0.7,1.1-1.4,1l-6.6-1c-0.7-0.1-1.1-0.7-1-1.4c0.2-1,0.4-1.9,0.4-2.2s0.1-1.1,0.2-2&#xD;&#xA;&#x9;c0.1-0.7,0.7-1.1,1.4-1l0,0l6.6,1c0.7,0.1,1.1,0.7,1,1.4l-2,0.4l-5.1-0.8l-0.4,2.8l5.1,0.8l0.4-2.8l2-0.4L792.7,304.7z"/>
  <path class="st0" d="M723.8,274.9c0.5,0.2,1.1-0.1,1.2-0.7c0.2-0.5-0.1-1.1-0.7-1.3c-0.5-0.2-1.1,0.1-1.3,0.7&#xD;&#xA;&#x9;c-0.1,0.2-0.1,0.4,0,0.6C723.2,274.6,723.5,274.8,723.8,274.9z"/>
  <path class="st0" d="M723.5,274.1l-3.3,12.9h0.8l2.4-9.1v9.1h0.9v-9.1l2.4,9.1h-6.4c0.9,2,3.2,2.9,5.2,2c0.9-0.4,1.6-1.1,2-2&#xD;&#xA;&#x9;l-3.3-12.9H723.5z"/>
  <path class="st0" d="M737.3,268.4l1.5,0.7l-0.2,0.3c-0.7,0-0.9,1.4-0.9,2.1c0,0.6,0.5,1,1,1c0,0,0,0,0,0l0,0&#xD;&#xA;&#x9;c1.2-0.3,2.4-0.5,3.6-0.6c1.7,0,3.5,0.7,5.3,0.7c0.9,0,1.9-0.2,2.7-0.5c0.5,0,1.4,0.2,1.4,0.9s-0.9,0.9-1.4,0.9&#xD;&#xA;&#x9;c-0.9-0.3-1.8-0.5-2.7-0.5c-1.8,0-3.6,0.7-5.3,0.7c-1.2-0.1-2.4-0.3-3.6-0.6c-0.5,0-1,0.4-1.1,0.9v0.1c0,0.4,0.8,1.2,0.8,1.2&#xD;&#xA;&#x9;l-1.3,2.1l-1.3-2.1c0,0,0.8-0.8,0.8-1.2c0-0.6-0.4-1-1-1h-0.1c-1.2,0.3-2.4,0.5-3.6,0.6c-1.7,0-3.5-0.7-5.3-0.7&#xD;&#xA;&#x9;c-0.9,0-1.9,0.2-2.7,0.5c-0.5,0-1.4-0.2-1.4-0.9s0.9-0.9,1.4-0.9c0.9,0.3,1.8,0.5,2.7,0.5c1.8,0,3.6-0.7,5.3-0.7&#xD;&#xA;&#x9;c1.2,0.1,2.4,0.3,3.6,0.6c0.6,0,1-0.4,1.1-0.9c0,0,0,0,0,0l0,0c0-0.7-0.2-2.1-0.9-2.1l-0.2-0.3L737.3,268.4z"/>
  <path class="st0" d="M750.8,274.9c-0.6,0-1-0.4-1-1s0.4-1,1-1s1,0.4,1,1S751.4,274.9,750.8,274.9z"/>
  <path class="st0" d="M751,274.1l3.3,12.9h-0.8l-2.4-9.1v9.1h-0.9v-9.1l-2.4,9.1h6.4c-0.9,2-3.2,2.9-5.1,2c-0.9-0.4-1.6-1.1-2-2&#xD;&#xA;&#x9;l3.4-12.9H751z"/>
  <path class="st0" d="M715.8,271.2c0.5,0,0.9-0.4,0.9-0.9c0-0.5-0.4-0.9-0.9-0.9s-0.9,0.4-0.9,0.9l0,0&#xD;&#xA;&#x9;C715,270.8,715.3,271.2,715.8,271.2z"/>
  <path class="st0" d="M712.8,274.2c0.5,0,0.9-0.4,0.9-0.9s-0.4-0.9-0.9-0.9s-0.9,0.4-0.9,0.9l0,0l0,0&#xD;&#xA;&#x9;C711.9,273.8,712.3,274.2,712.8,274.2z"/>
  <path class="st0" d="M718.8,274.2c0.5,0,0.9-0.4,0.9-0.9c0-0.5-0.4-0.9-0.9-0.9c-0.5,0-0.9,0.4-0.9,0.9c0,0,0,0,0,0l0,0&#xD;&#xA;&#x9;C718,273.8,718.4,274.2,718.8,274.2z"/>
  <path class="st0" d="M715.8,277.2c0.5,0,0.9-0.3,0.9-0.8c0-0.5-0.3-0.9-0.8-0.9s-0.9,0.3-0.9,0.8c0,0,0,0,0,0l0,0&#xD;&#xA;&#x9;C715,276.8,715.4,277.2,715.8,277.2z"/>
  <path class="st0" d="M721.8,271.2c0.5,0,0.9-0.4,0.9-0.9s-0.4-0.9-0.9-0.9s-0.9,0.4-0.9,0.9C720.9,270.8,721.3,271.2,721.8,271.2&#xD;&#xA;&#x9;L721.8,271.2z"/>
  <path class="st0" d="M752.9,271.2c0.5,0,0.9-0.4,0.9-0.9s-0.4-0.9-0.9-0.9s-0.9,0.4-0.9,0.9C752,270.8,752.4,271.2,752.9,271.2&#xD;&#xA;&#x9;L752.9,271.2z"/>
  <path class="st0" d="M721.8,277.1c0.5,0,0.9-0.4,0.9-0.9c0-0.5-0.4-0.9-0.9-0.9c-0.5,0-0.9,0.4-0.9,0.9&#xD;&#xA;&#x9;C720.9,276.8,721.3,277.1,721.8,277.1C721.8,277.1,721.8,277.1,721.8,277.1z"/>
  <path class="st0" d="M728.1,283.2c0.5,0,0.8-0.4,0.9-0.8c0-0.5-0.4-0.9-0.9-0.9s-0.9,0.4-0.9,0.9l0,0&#xD;&#xA;&#x9;C727.2,282.9,727.6,283.2,728.1,283.2C728.1,283.2,728.1,283.2,728.1,283.2L728.1,283.2z"/>
  <path class="st0" d="M731.4,286c0.5,0,0.9-0.4,0.9-0.9c0-0.5-0.4-0.9-0.9-0.9s-0.9,0.4-0.9,0.9l0,0C730.6,285.6,731,286,731.4,286z"/>
  <path class="st0" d="M718.8,280.2c0.5,0,0.9-0.4,0.9-0.9s-0.4-0.9-0.9-0.9s-0.9,0.4-0.9,0.9l0,0l0,0&#xD;&#xA;&#x9;C717.9,279.8,718.3,280.2,718.8,280.2z"/>
  <path class="st0" d="M715.8,283.1c0.5,0,0.9-0.4,0.9-0.9c0-0.5-0.4-0.9-0.9-0.9s-0.9,0.4-0.9,0.9l0,0&#xD;&#xA;&#x9;C715,282.7,715.3,283.1,715.8,283.1z"/>
  <path class="st0" d="M718.8,286.1c0.5-0.1,0.8-0.5,0.8-1c0,0,0,0,0,0c-0.1-0.5-0.5-0.8-1-0.8c-0.4,0-0.7,0.4-0.8,0.8&#xD;&#xA;&#x9;c-0.1,0.5,0.3,0.9,0.8,1c0,0,0,0,0,0H718.8z"/>
  <path class="st0" d="M725,292.3c0.5,0,0.9-0.4,0.9-0.9c0-0.5-0.4-0.9-0.9-0.9s-0.9,0.4-0.9,0.9l0,0&#xD;&#xA;&#x9;C724.1,291.9,724.5,292.3,725,292.3z"/>
  <path class="st0" d="M715.8,289.1c0.5,0,0.9-0.4,0.9-0.9c0-0.5-0.4-0.9-0.9-0.9s-0.9,0.4-0.9,0.9l0,0&#xD;&#xA;&#x9;C714.9,288.7,715.3,289.1,715.8,289.1C715.8,289.1,715.8,289.1,715.8,289.1L715.8,289.1z"/>
  <path class="st0" d="M715.8,295.3c0.5,0,0.9-0.4,0.9-0.9c0-0.5-0.4-0.9-0.9-0.9s-0.9,0.4-0.9,0.9l0,0l0,0&#xD;&#xA;&#x9;C714.9,294.9,715.3,295.3,715.8,295.3C715.8,295.3,715.8,295.3,715.8,295.3L715.8,295.3z"/>
  <path class="st0" d="M715.8,301.3c0.5,0,0.9-0.3,0.9-0.8s-0.3-0.9-0.8-0.9c-0.5,0-0.9,0.3-0.9,0.8c0,0,0,0,0,0l0,0&#xD;&#xA;&#x9;C715,300.8,715.4,301.2,715.8,301.3z"/>
  <path class="st0" d="M718.9,298.1c0.5,0,0.9-0.4,0.9-0.9c0-0.5-0.4-0.9-0.9-0.9s-0.9,0.4-0.9,0.9l0,0&#xD;&#xA;&#x9;C718.1,297.8,718.4,298.1,718.9,298.1C718.9,298.1,718.9,298.1,718.9,298.1L718.9,298.1z"/>
  <path class="st0" d="M722.1,295.3c0.5,0,0.9-0.4,0.9-0.9c0-0.5-0.4-0.9-0.9-0.9s-0.9,0.4-0.9,0.9l0,0l0,0&#xD;&#xA;&#x9;C721.2,294.9,721.6,295.3,722.1,295.3C722.1,295.3,722.1,295.3,722.1,295.3L722.1,295.3z"/>
  <path class="st0" d="M718.9,292.2c0.5,0,0.9-0.4,0.9-0.9s-0.4-0.9-0.9-0.9s-0.9,0.4-0.9,0.9l0,0l0,0&#xD;&#xA;&#x9;C718.1,291.8,718.5,292.2,718.9,292.2z"/>
  <path class="st0" d="M712.8,304.2c0.5,0,0.9-0.4,0.9-0.8c0-0.5-0.4-0.9-0.8-0.9c-0.5,0-0.9,0.4-0.9,0.8c0,0,0,0,0,0l0,0&#xD;&#xA;&#x9;C712,303.8,712.4,304.2,712.8,304.2z"/>
  <path class="st0" d="M728.1,277.1c0.5,0,0.9-0.4,0.9-0.9s-0.4-0.9-0.9-0.9s-0.9,0.4-0.9,0.9l0,0l0,0&#xD;&#xA;&#x9;C727.2,276.8,727.6,277.1,728.1,277.1z"/>
  <path class="st0" d="M731.2,280.2c0.5,0,0.9-0.4,0.9-0.9c0-0.5-0.4-0.9-0.9-0.9s-0.9,0.4-0.9,0.9l0,0&#xD;&#xA;&#x9;C730.3,279.8,730.7,280.2,731.2,280.2z"/>
  <path class="st0" d="M734.4,283c0.5,0,0.9-0.4,0.9-0.9s-0.4-0.9-0.9-0.9s-0.9,0.4-0.9,0.9l0,0l0,0C733.5,282.6,733.9,283,734.4,283z&#xD;&#xA;&#x9;"/>
  <path class="st0" d="M734.4,277.1c0.5,0,0.9-0.4,0.9-0.9s-0.4-0.9-0.9-0.9s-0.9,0.4-0.9,0.9l0,0l0,0&#xD;&#xA;&#x9;C733.5,276.7,733.9,277.1,734.4,277.1z"/>
  <path class="st0" d="M737.4,280.2c0.5,0,0.9-0.4,0.9-0.9c0-0.5-0.4-0.9-0.9-0.9s-0.9,0.4-0.9,0.9l0,0&#xD;&#xA;&#x9;C736.5,279.8,736.9,280.2,737.4,280.2z"/>
  <path class="st0" d="M740.4,277.1c0.5,0,0.9-0.4,0.9-0.9s-0.4-0.9-0.9-0.9s-0.9,0.4-0.9,0.9l0,0l0,0&#xD;&#xA;&#x9;C739.6,276.8,739.9,277.1,740.4,277.1z"/>
  <path class="st0" d="M743.9,280.3c0.5,0.1,0.9-0.3,1-0.8c0,0,0,0,0,0c0.1-0.5-0.3-0.9-0.7-1c0,0,0,0,0,0H744c-0.5,0.1-0.8,0.5-0.8,1&#xD;&#xA;&#x9;C743.2,279.9,743.6,280.2,743.9,280.3L743.9,280.3z"/>
  <path class="st0" d="M746.9,277.2c0.5,0,0.9-0.4,0.9-0.9c0-0.5-0.4-0.9-0.9-0.9s-0.9,0.4-0.9,0.9l0,0&#xD;&#xA;&#x9;C746,276.9,746.4,277.2,746.9,277.2z"/>
  <path class="st0" d="M740.8,283.2c0.5,0,0.9-0.4,0.9-0.9c0-0.5-0.4-0.9-0.9-0.9s-0.9,0.4-0.9,0.9l0,0&#xD;&#xA;&#x9;C739.9,282.8,740.3,283.2,740.8,283.2C740.8,283.2,740.8,283.2,740.8,283.2L740.8,283.2z"/>
  <path class="st0" d="M744,286.4c0.5,0,0.9-0.4,0.9-0.9c0-0.5-0.4-0.9-0.9-0.9s-0.9,0.4-0.9,0.9l0,0C743.1,286,743.5,286.4,744,286.4&#xD;&#xA;&#x9;z"/>
  <path class="st0" d="M747.1,283.4c0.5,0,0.9-0.4,0.9-0.9c0-0.5-0.4-0.9-0.9-0.9c-0.5,0-0.9,0.4-0.9,0.9&#xD;&#xA;&#x9;C746.2,283,746.6,283.4,747.1,283.4C747.1,283.4,747.1,283.4,747.1,283.4z"/>
  <path class="st0" d="M756.2,274.5c0.5,0,0.9-0.4,0.9-0.9s-0.4-0.9-0.9-0.9s-0.9,0.4-0.9,0.9C755.3,274.1,755.7,274.5,756.2,274.5&#xD;&#xA;&#x9;C756.2,274.5,756.2,274.5,756.2,274.5L756.2,274.5z"/>
  <path class="st0" d="M762.5,274.1c0.5,0,0.9-0.4,0.9-0.9s-0.4-0.9-0.9-0.9s-0.9,0.4-0.9,0.9C761.6,273.7,761.9,274.1,762.5,274.1&#xD;&#xA;&#x9;C762.4,274.1,762.4,274.1,762.5,274.1L762.5,274.1z"/>
  <path class="st0" d="M756.2,280.4c0.5,0,0.9-0.4,0.9-0.9s-0.4-0.9-0.9-0.9s-0.9,0.4-0.9,0.9l0,0l0,0&#xD;&#xA;&#x9;C755.3,280,755.7,280.4,756.2,280.4z"/>
  <path class="st0" d="M759.3,283.5c0.5,0,0.9-0.4,0.9-0.9c0-0.5-0.4-0.9-0.9-0.9s-0.9,0.4-0.9,0.9l0,0&#xD;&#xA;&#x9;C758.4,283.1,758.8,283.5,759.3,283.5z"/>
  <path class="st0" d="M760,289.5c0.5,0,0.9-0.4,0.9-0.9c0-0.5-0.4-0.9-0.9-0.9c-0.5,0-0.9,0.4-0.9,0.9&#xD;&#xA;&#x9;C759.1,289.2,759.5,289.5,760,289.5C760,289.5,760,289.5,760,289.5z"/>
  <path class="st0" d="M750.3,292.5c0.5,0,0.9-0.4,0.9-0.9s-0.4-0.9-0.9-0.9s-0.9,0.4-0.9,0.9l0,0l0,0&#xD;&#xA;&#x9;C749.4,292.1,749.8,292.5,750.3,292.5z"/>
  <path class="st0" d="M753.6,295.7c0.5,0,0.9-0.4,0.9-0.9s-0.4-0.9-0.9-0.9s-0.9,0.4-0.9,0.9l0,0l0,0&#xD;&#xA;&#x9;C752.7,295.3,753.1,295.7,753.6,295.7z"/>
  <path class="st0" d="M756.3,298.4c0.5,0,0.9-0.4,0.9-0.9c0-0.5-0.4-0.9-0.9-0.9s-0.9,0.4-0.9,0.9l0,0&#xD;&#xA;&#x9;C755.5,298,755.9,298.4,756.3,298.4z"/>
  <path class="st0" d="M759.8,301.5c0.5,0,0.9-0.4,0.9-0.9c0-0.5-0.4-0.9-0.9-0.9s-0.9,0.4-0.9,0.9l0,0&#xD;&#xA;&#x9;C758.9,301.1,759.3,301.5,759.8,301.5C759.7,301.5,759.7,301.5,759.8,301.5L759.8,301.5z"/>
  <path class="st0" d="M724.8,311.5c0.5,0.1,0.9-0.3,1-0.8c0,0,0,0,0,0c0.1-0.5-0.3-0.9-0.7-1c0,0,0,0,0,0h-0.2&#xD;&#xA;&#x9;c-0.5,0.1-0.8,0.5-0.8,1C724.1,311.1,724.4,311.4,724.8,311.5L724.8,311.5z"/>
  <path class="st0" d="M731,305.4c0.5,0,0.9-0.4,0.9-0.9s-0.4-0.9-0.9-0.9s-0.9,0.4-0.9,0.9l0,0l0,0C730.1,305,730.5,305.4,731,305.4z&#xD;&#xA;&#x9;"/>
  <path class="st0" d="M734,302.3c0.5,0,0.9-0.4,0.9-0.9c0-0.5-0.4-0.9-0.9-0.9s-0.9,0.4-0.9,0.9l0,0&#xD;&#xA;&#x9;C733.1,301.9,733.5,302.3,734,302.3C734,302.3,734,302.3,734,302.3L734,302.3z"/>
  <path class="st0" d="M737.1,299.2c0.5,0,0.9-0.4,0.9-0.9c0-0.5-0.4-0.9-0.9-0.9c-0.5,0-0.9,0.4-0.9,0.9&#xD;&#xA;&#x9;C736.2,298.8,736.6,299.2,737.1,299.2C737.1,299.2,737.1,299.2,737.1,299.2z"/>
  <path class="st0" d="M740.3,302.4c0.5,0,0.9-0.4,0.9-0.9s-0.4-0.9-0.9-0.9s-0.9,0.4-0.9,0.9l0,0l0,0&#xD;&#xA;&#x9;C739.4,302,739.8,302.4,740.3,302.4z"/>
  <path class="st0" d="M743.6,305.4c0.5,0,0.9-0.4,0.9-0.9c0-0.5-0.4-0.9-0.9-0.9s-0.9,0.4-0.9,0.9l0,0&#xD;&#xA;&#x9;C742.7,305,743.1,305.4,743.6,305.4z"/>
  <path class="st0" d="M746.6,308.4c0.5,0,0.9-0.4,0.9-0.9c0-0.5-0.4-0.9-0.9-0.9c-0.5,0-0.9,0.4-0.9,0.9&#xD;&#xA;&#x9;C745.8,308,746.1,308.4,746.6,308.4C746.6,308.4,746.6,308.4,746.6,308.4z"/>
  <path class="st0" d="M740.3,308.4c0.5,0,0.9-0.4,0.9-0.9c0-0.5-0.4-0.9-0.9-0.9s-0.9,0.4-0.9,0.9l0,0&#xD;&#xA;&#x9;C739.4,308,739.8,308.4,740.3,308.4z"/>
  <path class="st0" d="M737.2,305.4c0.5,0,0.9-0.4,0.9-0.9s-0.4-0.9-0.9-0.9s-0.9,0.4-0.9,0.9l0,0l0,0&#xD;&#xA;&#x9;C736.4,305,736.8,305.4,737.2,305.4z"/>
  <path class="st0" d="M734.1,308.5c0.5,0,0.9-0.4,0.9-0.9c0-0.5-0.4-0.9-0.9-0.9s-0.9,0.4-0.9,0.9l0,0&#xD;&#xA;&#x9;C733.3,308.2,733.6,308.5,734.1,308.5C734.1,308.6,734.1,308.6,734.1,308.5L734.1,308.5z"/>
  <path class="st0" d="M731.1,311.6c0.5,0,0.9-0.4,0.9-0.9s-0.4-0.9-0.9-0.9s-0.9,0.4-0.9,0.9l0,0l0,0&#xD;&#xA;&#x9;C730.2,311.2,730.6,311.6,731.1,311.6z"/>
  <path class="st0" d="M737.2,311.6c0.5,0,0.9-0.4,0.9-0.9s-0.4-0.9-0.9-0.9s-0.9,0.4-0.9,0.9l0,0l0,0&#xD;&#xA;&#x9;C736.4,311.2,736.8,311.6,737.2,311.6z"/>
  <path class="st0" d="M743.3,311.6c0.5,0,0.9-0.4,0.9-0.9c0-0.5-0.4-0.9-0.9-0.9c-0.5,0-0.9,0.4-0.9,0.9&#xD;&#xA;&#x9;C742.4,311.2,742.8,311.6,743.3,311.6C743.3,311.6,743.3,311.6,743.3,311.6z"/>
  <path class="st0" d="M752.8,314.4c0.5,0,0.9-0.4,0.9-0.9c0-0.5-0.4-0.9-0.9-0.9s-0.9,0.4-0.9,0.9l0,0&#xD;&#xA;&#x9;C751.9,314,752.3,314.4,752.8,314.4C752.8,314.4,752.8,314.4,752.8,314.4L752.8,314.4z"/>
  <path class="st0" d="M756,317.4c0.5,0,0.9-0.4,0.9-0.9c0-0.5-0.4-0.9-0.9-0.9s-0.9,0.4-0.9,0.9l0,0C755.1,317,755.5,317.4,756,317.4&#xD;&#xA;&#x9;C756,317.4,756,317.4,756,317.4L756,317.4z"/>
  <path class="st0" d="M752.9,320.5c0.5,0,0.9-0.4,0.9-0.9s-0.4-0.9-0.9-0.9s-0.9,0.4-0.9,0.9l0,0C752,320.2,752.4,320.5,752.9,320.5&#xD;&#xA;&#x9;L752.9,320.5z"/>
  <path class="st0" d="M740.5,320.6c0.5,0,0.9-0.4,0.9-0.9s-0.4-0.9-0.9-0.9s-0.9,0.4-0.9,0.9C739.7,320.3,740,320.6,740.5,320.6&#xD;&#xA;&#x9;L740.5,320.6z"/>
  <path class="st0" d="M734.1,320.6c0.5,0,0.9-0.4,0.9-0.9c0-0.5-0.4-0.9-0.9-0.9s-0.9,0.4-0.9,0.9l0,0&#xD;&#xA;&#x9;C733.3,320.3,733.7,320.6,734.1,320.6z"/>
  <path class="st0" d="M743.4,323.6c0.5,0,0.9-0.4,0.9-0.9s-0.4-0.9-0.9-0.9s-0.9,0.4-0.9,0.9C742.5,323.2,742.9,323.6,743.4,323.6&#xD;&#xA;&#x9;L743.4,323.6z"/>
  <path class="st0" d="M737.2,323.6c0.5,0.1,0.9-0.3,1-0.8c0,0,0,0,0,0c0.1-0.5-0.3-0.9-0.7-1c0,0,0,0,0,0h-0.2&#xD;&#xA;&#x9;c-0.5,0.1-0.8,0.5-0.8,1C736.5,323.2,736.9,323.5,737.2,323.6L737.2,323.6z"/>
  <path class="st0" d="M731.1,323.6c0.5,0,0.9-0.4,0.9-0.9c0-0.5-0.4-0.9-0.9-0.9s-0.9,0.4-0.9,0.9l0,0&#xD;&#xA;&#x9;C730.2,323.2,730.6,323.6,731.1,323.6z"/>
  <path class="st0" d="M770.2,274.8c1.5,0.6,3.9,3.3,2.4,4.8c-5.5-2-7.2,2.9-7.2,5.6c0,6.3,4.8,9.5,4.8,20.7c0,3.5-0.9,17.1-19.5,21.4&#xD;&#xA;&#x9;c-2.9,0.7-9.2,2.4-13.4,6.2v-1.1c4.5-4.2,13.3-5.7,14.7-6.1c6.9-2.1,17.3-7.8,17.3-20.6c0-7.9-3.2-14-6.2-14c-1.3,0-0.9,1.6-0.2,2.6&#xD;&#xA;&#x9;c0.4,0.6,0.9,1.7-0.2,1.4s-2.7,0.1-2.7,1.2c0,0.5,0.7,0.5,1,0.3c0.4-0.2,1-0.4,1.5-0.4c1.3,0,2.7,0.8,2.7,1.7s-1.8,0.5-1.8,1.3&#xD;&#xA;&#x9;c0,0.5,4.2,3.5,4.2,7.1c0,1.1-0.5,0.7-0.7,0s-1-1.6-1.7-1.6s-1.1,0.3-0.8,0.9c0.9,1.4,1.4,3.1,1.5,4.8c0,2.5-1.8,5.7-3,7.2&#xD;&#xA;&#x9;c-0.6,0.7-0.8,0.3-0.9,0s-0.4-1.1-1-1.1c-1,0-0.4,4.8-11.4,7.7c-2.2,0.6-7.8,2-12.4,5.5c-4.6-3.5-10.2-4.9-12.4-5.5&#xD;&#xA;&#x9;c-11-2.9-10.4-7.7-11.4-7.7c-0.6,0-0.8,0.9-1,1.1s-0.3,0.7-0.9,0c-1.2-1.5-3-4.7-3-7.2c0-1.7,0.6-3.4,1.5-4.8&#xD;&#xA;&#x9;c0.3-0.6-0.1-0.9-0.8-0.9s-1.4,0.9-1.7,1.6s-0.7,1.1-0.7,0c0-3.5,4.2-6.6,4.2-7.1c0-0.7-1.8-0.3-1.8-1.3s1.4-1.7,2.7-1.7&#xD;&#xA;&#x9;c0.5,0,1,0.1,1.5,0.4c0.3,0.2,1,0.2,1-0.3c0-1-1.5-1.4-2.7-1.2s-0.7-0.8-0.2-1.4c0.7-1,1.1-2.6-0.2-2.6c-3,0-6.2,6.2-6.2,14&#xD;&#xA;&#x9;c0,12.8,10.4,18.5,17.3,20.6c1.4,0.4,10.2,1.9,14.7,6.1v1.2c-4.2-3.9-10.5-5.5-13.4-6.2c-18.6-4.3-19.5-17.9-19.5-21.4&#xD;&#xA;&#x9;c0-11.2,4.8-14.4,4.8-20.7c0-2.7-1.7-7.5-7.2-5.6c-1.5-1.5,0.9-4.2,2.4-4.8c-0.3-1.4,4.3-7.3,11.8-7.3c4.8,0,8.6,2.3,13.8,2.3&#xD;&#xA;&#x9;c2.6-0.1,5.1-0.9,7.4-2.1v1.1c-2.3,1.2-4.8,2-7.4,2.1c-5.1,0-8.9-2.3-13.8-2.3c-3,0-6,1-8.3,3c0.4,0.1,0.9,0.3,1.3,0.5&#xD;&#xA;&#x9;c0.5,0.4,0.2,0.9-0.4,0.6c-0.5-0.2-1-0.4-1.5-0.5c-0.3,0.2-0.5,0.5-0.7,0.8c0.9,0,1.7,0.2,2.5,0.6c0.5,0.3,0.4,0.9-0.3,0.6&#xD;&#xA;&#x9;c-0.8-0.4-1.7-0.6-2.7-0.5c-0.2,0.3-0.3,0.6-0.4,0.9l0.3,1.2c-1,0-3.6,0.9-3.1,2.6c0.9-0.3,7.2-0.1,7.2,6.2c0,1.1,0.4,1,0.4,0.6&#xD;&#xA;&#x9;c0.4-3-1.1-5.9-3.8-7.3c-1-0.5-0.7-1.3,0.6-0.5c2.4,1.2,3.9,3.7,3.9,6.4c0,0.9-0.2,2.6-0.2,2.6c0.7-1,1.1-2.1,1-3.4&#xD;&#xA;&#x9;c0-4-3.2-7.2-5.9-7.2l-0.3-1.2c1.6-0.2,7.3,1.3,7.3,9.1c0,1.3-0.8,5.4-2.1,7.1c1.5-0.2,4.4-0.1,2.1,3.9c3.3,0.7,2.5,4,1.4,4&#xD;&#xA;&#x9;c-1.4,0-1.3-0.8-2.7-0.8c-1,0-1.1,0.6-0.5,0.8c0.7,0.1,1.1,0.7,1.1,1.4c0,1.4-2,0.7-3.8,4.8c0.4-0.2,0.9-0.3,1.4-0.3&#xD;&#xA;&#x9;c0.4,0,1.4,0.1,1.4,1s-1.8,2-1.8,5.4c0,1.8,1.8,4.9,2.3,5.5c0.4-0.5,1.1-0.9,1.7-0.9c2.1,0,1.8,1.7,1.8,2.1s2.3,4.5,9.1,6.2&#xD;&#xA;&#x9;c3.3,0.8,10.4,2.8,12.9,5.2c2.5-2.4,9.7-4.4,12.9-5.2c6.7-1.7,9.1-5.7,9.1-6.2s-0.3-2.1,1.8-2.1c0.7,0.1,1.3,0.4,1.7,0.9&#xD;&#xA;&#x9;c0.5-0.6,2.3-3.8,2.3-5.5c0-3.4-1.7-4.6-1.7-5.5s1-1,1.4-1c0.5,0,0.9,0.1,1.4,0.3c-1.8-4.1-3.8-3.4-3.8-4.8c0-0.7,0.5-1.2,1.1-1.4&#xD;&#xA;&#x9;c0.5-0.2,0.5-0.8-0.5-0.8c-1.4,0-1.2,0.8-2.7,0.8c-1,0-1.9-3.3,1.4-4c-2.3-4,0.6-4.1,2.1-3.9c-1.4-1.7-2.1-5.8-2.1-7.1&#xD;&#xA;&#x9;c0-4.6,2-7,4-8.2c-0.3-0.4-0.6-0.7-1-1c-0.6-0.5-0.1-0.9,0.4-0.5c0.5,0.3,0.9,0.7,1.2,1.2c0.3-0.1,0.5-0.2,0.8-0.3&#xD;&#xA;&#x9;c-0.3-0.4-0.6-0.8-1-1.1c-0.5-0.5-0.1-0.9,0.4-0.6c0.6,0.4,1.1,0.9,1.4,1.5c0.4-0.1,0.7-0.1,1.1,0l-0.3,1.2c-2.7,0-5.9,3.2-5.9,7.2&#xD;&#xA;&#x9;c-0.1,1.2,0.3,2.4,1,3.4c-0.1-0.9-0.2-1.7-0.3-2.6c0-2.7,1.5-5.1,3.9-6.4c1.3-0.7,1.6,0.1,0.6,0.5c-2.7,1.4-4.2,4.3-3.8,7.3&#xD;&#xA;&#x9;c0,0.4,0.4,0.5,0.4-0.6c0-6.4,6.3-6.5,7.2-6.2c0.5-1.7-2.2-2.6-3.1-2.6l0.3-1.2c-0.2-1.4-4.1-5.9-10.5-5.9c-4.8,0-8.6,2.3-13.8,2.3&#xD;&#xA;&#x9;c-2.6-0.1-5.1-0.9-7.4-2.1v-1.1c2.3,1.2,4.8,2,7.4,2.1c5.1,0,8.9-2.3,13.8-2.3C765.9,267.4,770.5,273.4,770.2,274.8z"/>
  <path class="st0" d="M740.8,328.8c3.5-1.9,7.2-3.4,11.1-4.3c1.4-0.3,1.1,0.3-0.2,0.6c-3.6,0.9-7.1,2.2-10.3,3.9&#xD;&#xA;&#x9;C740.7,329.5,739.7,329.5,740.8,328.8z"/>
  <path class="st0" d="M734.7,329.4c-1.6-1.2-6.4-3.3-10.4-4c-1.4-0.3-1.1,0.3,0.2,0.6c3.4,0.7,6.6,1.9,9.6,3.6&#xD;&#xA;&#x9;C734.9,330,735.8,330.1,734.7,329.4z"/>
  <path class="st0" d="M737.3,283.2l27.9,27.3c0.1-0.6,0.1-1.2-0.1-1.7l-27.8-27.2l-27.8,27.2c-0.2,0.6-0.2,1.1-0.1,1.7L737.3,283.2z"/>
  <path class="st0" d="M737.3,292.8l24.1,23.6c1.9,1.6,3.3-3.3,3.7-4.7l-27.9-27.3l-27.8,27.3l3,1.8v-1.4l-0.8-1.1l1.3-0.4l0.8-1.1&#xD;&#xA;&#x9;l0.8,1.1l1.8-0.9v-1.4l-0.8-1.1l1.3-0.4l0.8-1.1l0.8,1.1l1.8-0.9v-1.4l-0.8-1.1l1.3-0.4l0.8-1.1l0.8,1.1l1.8-0.9v-1.4l-0.8-1.1&#xD;&#xA;&#x9;l1.3-0.4l0.8-1.1l0.8,1.1l1.8-0.9v-1.4l-0.8-1.1l1.3-0.4l0.8-1.1l0.8,1.1l1.8-0.8V293l-0.8-1.1l1.4-0.4l0.8-1.1l0.8,1.1l1.8-0.9&#xD;&#xA;&#x9;v-1.4l-0.8-1.1l1.3-0.4l0.8-1.1l0.8,1.1l1.3,0.4l-0.8,1.1v1.4l0.4,1.3l1.3-0.4l0.8-1.1l0.8,1.1l1.3,0.4l-0.8,1.1v1.4l1.8,0.9&#xD;&#xA;&#x9;l0.8-1.1l0.8,1.1l1.3,0.4l-0.8,1.1v1.4l1.8,0.9l0.8-1.1l0.8,1.1l1.3,0.4l-0.8,1.1v1.4l1.8,0.9l0.8-1.1l0.8,1.1l1.3,0.4l-0.8,1.1v1.4&#xD;&#xA;&#x9;l1.8,0.9l0.8-1.1l0.8,1.1l1.3,0.4l-0.8,1.1v1.4l1.8,0.9l0.8-1.1l0.8,1.1l1.3,0.4l-0.8,1.1v1.4l-1.3-0.5l-1.3,0.5v-1.4l-0.8-1.1&#xD;&#xA;&#x9;l1.3-0.4l-1.8-0.9l-1.3-0.5l-1.3,0.5v-1.4l-0.8-1.1l1.3-0.4l-1.8-0.9l-1.3-0.5l-1.3,0.5v-1.4l-0.8-1.1l1.3-0.4l-1.8-0.9l-1.3-0.5&#xD;&#xA;&#x9;l-1.3,0.5v-1.4l-0.8-1.1l1.3-0.4l-1.8-0.9l-1.3-0.5l-1.3,0.5v-1.4l-0.8-1.1l1.3-0.4l-1.8-0.9l-1.3-0.4l-1.3,0.4v-1.4l-0.8-1.1&#xD;&#xA;&#x9;l-0.4-1.3l-1.3-0.5l-1.3,0.5l-1.7,0.8l1.3,0.4l-0.8,1.1v1.4l-1.3-0.4l-1.3,0.4l-1.8,0.9l1.3,0.4l-0.8,1.1v1.4l-1.3-0.5l-1.3,0.5&#xD;&#xA;&#x9;l-1.8,0.9l1.3,0.4l-0.8,1.1v1.4l-1.3-0.5L724,302l-1.8,0.9l1.3,0.4l-0.6,1.1v1.4l-1.4-0.5l-1.3,0.5l-1.8,0.9l1.3,0.4l-0.8,1.1v1.4&#xD;&#xA;&#x9;l-1.3-0.5l-1.3,0.5l-1.8,0.9l1.3,0.4l-0.8,1.1v1.4l-1.3-0.5l-1.3,0.5l-3-1.8c0.4,1.4,1.8,6.3,3.7,4.7L737.3,292.8z"/>
  <path class="st0" d="M259.4,157.2v272.6h70.5l0.3-60V217.2h16.6c45.5,0,77.7,27.5,77.7,76.3c0,53.1-36.1,76.3-78.4,76.3h-15.9&#xD;&#xA;&#x9;l-0.3,60h30c75.6,0,138.5-59.6,138.5-136.3s-62.6-136.3-138.5-136.3H259.4z"/>
  <path class="st0" d="M797.5,248.7c-14.5-19.5-38-30-62.2-30c-43.4,0-72.7,33.3-72.7,75.6c0,43,29.6,74.1,73.7,74.1&#xD;&#xA;&#x9;c23.1,0,46.2-11.2,61.1-29v85C774,431.6,757,437,735,437c-38,0-74.1-14.5-102.3-40.1c-30-27.1-43.7-62.5-43.7-103&#xD;&#xA;&#x9;c-0.2-37.2,14.2-73,40.1-99.8c26.7-27.5,65.5-44.1,103.7-44.1c22.8,0,43.7,5.1,64.7,13.7L797.5,248.7z"/>
  <path class="st0" d="M92.6,451.4v7.2h8.8v2.9h-8.8v12.5h-3.2v-25.4h12.3v2.8H92.6z"/>
  <path class="st0" d="M105.9,448.5h13.7v2.8H109v7.1h10.2v2.9H109v9.6h10.5v2.9h-13.7V448.5z"/>
  <path class="st0" d="M123.6,448.5h5.3c7.8,0,14.3,4.1,14.3,12.6c0,8.7-6.3,12.8-14.4,12.8h-5.2V448.5z M126.8,471h1.1&#xD;&#xA;&#x9;c6.5,0,12.1-2.4,12.1-9.8s-5.6-9.9-12.1-9.9h-1.1V471z"/>
  <path class="st0" d="M146.8,448.5h13.6v2.8h-10.5v7.1h10.2v2.9h-10.2v9.6h10.5v2.9h-13.6V448.5z"/>
  <path class="st0" d="M180.6,474h-3.9l-7.5-10.8h-1.3V474h-3.2v-25.4h3.8c2.3,0,4.7,0,6.7,1.2c2.1,1.3,3.4,3.6,3.3,6.1&#xD;&#xA;&#x9;c0.1,3.6-2.5,6.7-6.1,7.1L180.6,474z M167.9,460.6h1c3.2,0,6.8-0.6,6.8-4.7s-3.8-4.5-6.9-4.5h-0.8V460.6z"/>
  <path class="st0" d="M187.1,467.6l-2.9,6.4h-3.4l12.2-26.5l12.1,26.5h-3.4l-2.9-6.4L187.1,467.6z M193,454.4l-4.5,10.3h9L193,454.4z&#xD;&#xA;&#x9;"/>
  <path class="st0" d="M210.9,471h7.7v2.9h-10.9v-25.4h3.2L210.9,471z"/>
  <path class="st0" d="M231,448.5h5.3c7.8,0,14.3,4.1,14.3,12.6c0,8.7-6.3,12.8-14.4,12.8H231V448.5z M234.2,471h1.1&#xD;&#xA;&#x9;c6.5,0,12.1-2.4,12.1-9.8s-5.6-9.8-12.1-9.8h-1.1L234.2,471z"/>
  <path class="st0" d="M254.1,448.5h13.7v2.8h-10.5v7.1h10.2v2.9h-10.2v9.6h10.5v2.9h-13.7V448.5z"/>
  <path class="st0" d="M275.3,474h-3.2v-25.4h3.6c7.8,0,10.2,2.7,10.2,7.4c0,5.4-4.1,7.4-8.9,7.4h-1.8V474z M275.3,460.5h1&#xD;&#xA;&#x9;c3.2,0,6.7-0.6,6.7-4.7s-3.8-4.4-6.9-4.4h-0.8L275.3,460.5z"/>
  <path class="st0" d="M314.1,461.2c0,7.4-6,13.3-13.3,13.3s-13.3-6-13.3-13.3s6-13.3,13.3-13.3C308.2,447.9,314.1,453.9,314.1,461.2&#xD;&#xA;&#x9;C314.1,461.2,314.1,461.2,314.1,461.2z M311,461.2c0-5.6-4.5-10.2-10.1-10.2s-10.2,4.5-10.2,10.1c0,5.6,4.5,10.2,10.1,10.2&#xD;&#xA;&#x9;c0,0,0,0,0,0C306.4,471.4,311,466.9,311,461.2C311,461.3,311,461.2,311,461.2L311,461.2z"/>
  <path class="st0" d="M329,453.4c-0.8-1.5-2.4-2.5-4.1-2.4c-2,0-4.2,1.4-4.2,3.6c0,2,2,3,3.5,3.6l1.8,0.7c3.6,1.4,6.3,3.4,6.3,7.7&#xD;&#xA;&#x9;c0.1,4.3-3.4,7.9-7.7,7.9h-0.4c-4.1,0-7.4-3.1-7.9-7.1l3.2-0.7c-0.1,2.7,2,4.9,4.7,5s4.9-2,5-4.7c0-0.1,0-0.3,0-0.4&#xD;&#xA;&#x9;c0-2.7-2.2-3.9-4.4-4.8L323,461c-2.9-1.2-5.5-2.9-5.5-6.4c0-4.1,3.6-6.6,7.5-6.6c2.7-0.1,5.3,1.4,6.5,3.8L329,453.4z"/>
  <path class="st0" d="M339.3,474h-3.2v-25.4h3.2V474z"/>
  <path class="st0" d="M351.3,474h-3.2v-22.6h-6v-2.9h15.2v2.9h-6L351.3,474z"/>
  <path class="st0" d="M373.5,474h-3.2v-25.4h3.2V474z"/>
  <path class="st0" d="M378.5,447.3l19.1,20v-18.8h3.2V475l-19.1-20v19h-3.2V447.3z"/>
  <path class="st0" d="M417,453.4c-0.8-1.5-2.4-2.5-4.1-2.4c-2,0-4.2,1.4-4.2,3.6c0,2,2,3,3.5,3.6l1.8,0.7c3.6,1.4,6.3,3.4,6.3,7.7&#xD;&#xA;&#x9;c0.1,4.3-3.4,7.9-7.7,7.9h-0.4c-4.1,0-7.4-3.1-7.9-7.1l3.2-0.7c-0.1,2.7,2,4.9,4.7,5s4.9-2,5-4.7c0-0.1,0-0.3,0-0.4&#xD;&#xA;&#x9;c0-2.7-2.2-3.9-4.4-4.8l-1.8-0.8c-2.9-1.2-5.5-2.9-5.5-6.4c0-4.1,3.6-6.6,7.5-6.6c2.7-0.1,5.3,1.4,6.5,3.8L417,453.4z"/>
  <path class="st0" d="M427,448.5v15c0,4.2,1.2,8,6.1,8s6.1-3.8,6.1-8v-15h3.2v16.1c0,5.6-3.5,9.9-9.3,9.9s-9.3-4.3-9.3-9.9v-16.1H427&#xD;&#xA;&#x9;z"/>
  <path class="st0" d="M463,474h-3.8l-7.5-10.8h-1.3V474h-3.2v-25.4h3.8c2.3,0,4.7,0,6.7,1.2c3.4,2.1,4.3,6.6,2.2,9.9&#xD;&#xA;&#x9;c-1.1,1.8-2.9,2.9-5,3.3L463,474z M450.4,460.6h1c3.2,0,6.7-0.6,6.7-4.7s-3.8-4.5-6.9-4.5h-0.8L450.4,460.6z"/>
  <path class="st0" d="M469.6,467.6l-2.9,6.4h-3.4l12.1-26.5l12.1,26.5h-3.4l-2.9-6.4H469.6z M475.4,454.4l-4.5,10.3h9L475.4,454.4z"/>
  <path class="st0" d="M489.8,447.3l19.1,20v-18.8h3.2V475L493,455v19h-3.2V447.3z"/>
  <path class="st0" d="M535.5,453.4c-4.3-3.8-10.9-3.4-14.7,0.8s-3.4,10.9,0.8,14.7c4,3.5,9.9,3.5,13.9,0v3.7c-2,1.2-4.3,1.8-6.7,1.8&#xD;&#xA;&#x9;c-7.3,0-13.2-5.8-13.2-13.1c0-7.4,6-13.3,13.4-13.4h0.2c2.3,0,4.5,0.6,6.4,1.7L535.5,453.4z"/>
  <path class="st0" d="M539.8,448.5h13.7v2.8H543v7.1h10.2v2.9H543v9.6h10.5v2.9h-13.7V448.5z"/>
  <path class="st0" d="M586.5,453.4c-4.3-3.8-10.9-3.4-14.7,0.8s-3.4,10.9,0.8,14.7c4,3.5,9.9,3.5,13.9,0v3.7c-2,1.2-4.3,1.8-6.7,1.8&#xD;&#xA;&#x9;c-7.3,0.1-13.2-5.7-13.3-13v-0.1c0-7.4,6-13.4,13.3-13.4h0.2c2.3,0,4.5,0.6,6.4,1.7L586.5,453.4z"/>
  <path class="st0" d="M615.6,461.2c0,7.4-6,13.3-13.3,13.3s-13.3-6-13.3-13.3s6-13.3,13.3-13.3S615.6,453.9,615.6,461.2L615.6,461.2z&#xD;&#xA;&#x9; M612.4,461.2c0-5.6-4.5-10.2-10.1-10.2c-5.6,0-10.2,4.5-10.2,10.1c0,0,0,0,0,0l0,0c0,5.6,4.6,10.1,10.2,10.1&#xD;&#xA;&#x9;C607.9,471.4,612.4,466.8,612.4,461.2z"/>
  <path class="st0" d="M634.9,474h-3.8l-7.5-10.8h-1.3V474h-3.2v-25.4h3.8c2.3,0,4.7,0,6.7,1.2c3.4,2.1,4.3,6.6,2.2,9.9&#xD;&#xA;&#x9;c-1.1,1.8-2.9,2.9-5,3.3L634.9,474z M622.3,460.6h1c3.2,0,6.7-0.6,6.7-4.7s-3.8-4.5-6.9-4.5h-0.8L622.3,460.6z"/>
  <path class="st0" d="M641,474h-3.2v-25.4h3.7c7.8,0,10.3,2.7,10.3,7.4c0,5.4-4.1,7.4-8.9,7.4H641L641,474z M641,460.5h1&#xD;&#xA;&#x9;c3.2,0,6.8-0.6,6.8-4.7s-3.8-4.4-6.9-4.4H641V460.5z"/>
  <path class="st0" d="M679.8,461.2c0,7.4-6,13.3-13.3,13.3s-13.3-6-13.3-13.3s6-13.3,13.3-13.3S679.8,453.9,679.8,461.2L679.8,461.2z&#xD;&#xA;&#x9; M676.7,461.2c0-5.6-4.5-10.2-10.1-10.2c-5.6,0-10.2,4.5-10.2,10.1c0,0,0,0,0,0l0,0c0,5.6,4.6,10.1,10.2,10.1&#xD;&#xA;&#x9;C672.1,471.4,676.7,466.8,676.7,461.2z"/>
  <path class="st0" d="M699.2,474h-3.8l-7.5-10.8h-1.3V474h-3.2v-25.4h3.8c2.3,0,4.7,0,6.7,1.2c3.4,2.1,4.3,6.6,2.2,9.9&#xD;&#xA;&#x9;c-1.1,1.8-2.9,2.9-5,3.3L699.2,474z M686.5,460.6h1c3.2,0,6.7-0.6,6.7-4.7s-3.7-4.5-6.9-4.5h-0.8L686.5,460.6z"/>
  <path class="st0" d="M705.7,467.6l-2.9,6.4h-3.4l12.1-26.5l12.1,26.5h-3.4l-2.9-6.4H705.7z M711.5,454.4l-4.5,10.3h9L711.5,454.4z"/>
  <path class="st0" d="M730.4,474h-3.2v-22.6h-6v-2.9h15.2v2.9h-6L730.4,474z"/>
  <path class="st0" d="M742.5,474h-3.2v-25.4h3.2V474z"/>
  <path class="st0" d="M772.5,461.2c0.2,7.4-5.6,13.5-13,13.6c-7.4,0.2-13.5-5.6-13.6-13s5.6-13.5,13-13.6c0.2,0,0.5,0,0.7,0&#xD;&#xA;&#x9;C766.7,448.4,772.4,454.2,772.5,461.2z M769.4,461.2c0-5.6-4.5-10.2-10.1-10.2c-5.6,0-10.2,4.5-10.2,10.1c0,0,0,0,0,0l0,0&#xD;&#xA;&#x9;c0,5.6,4.6,10.1,10.2,10.1C764.8,471.4,769.4,466.8,769.4,461.2z"/>
  <path class="st0" d="M775.7,447.3l19.1,20v-18.8h3.2V475l-19.1-20v19h-3.2L775.7,447.3z"/>
  <circle class="st0" cx="759.6" cy="270.3" r="0.9"/>
  <circle class="st0" cx="759.3" cy="276.4" r="0.9"/>
  <circle class="st0" cx="756.1" cy="285.6" r="0.9"/>
  <circle class="st0" cx="756.7" cy="291.7" r="0.9"/>
  <circle class="st0" cx="718.5" cy="316.9" r="0.9"/>
  <circle class="st0" cx="727.8" cy="307.7" r="0.9"/>
  <rect x="508.4" y="157.2" class="st0" width="70.9" height="272.6"/>
</svg>