<svg viewBox="-37.5015 -12.3 325.013 73.8" width="1200" height="800" xmlns="http://www.w3.org/2000/svg"><path fill="#776F67" d="M146.76 37.52c0 .32-.24.57-.57.57h-7.18c-.32 0-.57-.24-.57-.57V12.53c0-.32.24-.57.57-.57h7.22c.32 0 .57.24.57.57zM75.94 1.94h-7.75c-.32 0-.57.24-.57.57v12.98h-6.25V2.51c0-.32-.24-.57-.57-.57h-7.75c-.32 0-.57.24-.57.57v35.05c0 .32.24.57.57.57h7.75c.32 0 .57-.24.57-.57v-14.2h6.25v14.2c0 .32.24.57.57.57h7.75c.32 0 .57-.24.57-.57V2.51c-.01-.32-.25-.57-.57-.57zm73.62 35.58c0 .32.24.57.57.57h7.02c.32 0 .57-.24.57-.57V17.85h1.87c.93 0 1.7.77 1.7 1.7v17.97c0 .32.24.57.57.57h7.06c.32 0 .57-.24.57-.57V17.89c0-3.25-2.64-5.88-5.88-5.88h-13.06c-.49 0-.89.41-.89.89v24.62zm80.52 0c0 .32.24.57.57.57h7.02c.32 0 .57-.24.57-.57V17.85h1.87c.93 0 1.7.77 1.7 1.7v17.97c0 .32.24.57.57.57h7.06c.32 0 .57-.24.57-.57V17.89c0-3.25-2.64-5.88-5.88-5.88h-13.06c-.49 0-.89.41-.89.89v24.62zm-128.02 0c0 .32.24.57.57.57h7.02c.32 0 .57-.24.57-.57V17.85h1.87c.93 0 1.7.77 1.7 1.7v17.97c0 .32.24.57.57.57h7.06c.32 0 .57-.24.57-.57V17.89c0-3.25-2.64-5.88-5.88-5.88h-13.06c-.49 0-.89.41-.89.89v24.62zm-2.88-24.99c0-.32-.24-.57-.57-.57h-7.02c-.32 0-.57.24-.57.57V32.2h-1.87c-.93 0-1.7-.77-1.7-1.7V12.53c0-.32-.24-.57-.57-.57h-7.06c-.32 0-.57.24-.57.57v19.63c0 3.25 2.64 5.88 5.88 5.88h13.06c.49 0 .89-.41.89-.89V12.53zm36.14 19.72h-1.38c-.93 0-1.7-.77-1.7-1.7V19.02h3.08c.32 0 .57-.24.57-.57v-5.92c0-.32-.24-.57-.57-.57h-3.08V7.18c0-.32-.24-.57-.57-.57h-6.69c-.32 0-.57.24-.57.57v24.99c0 3.25 2.64 5.88 5.88 5.88h5.03c.32 0 .57-.24.57-.57v-4.66c0-.33-.28-.57-.57-.57zm69.86 0h-1.38c-.93 0-1.7-.77-1.7-1.7V19.02h3.08c.32 0 .57-.24.57-.57v-5.92c0-.32-.24-.57-.57-.57h-3.08V7.18c0-.32-.24-.57-.57-.57h-6.69c-.32 0-.57.24-.57.57v24.99c0 3.25 2.64 5.88 5.88 5.88h5.03c.32 0 .57-.24.57-.57v-4.66c-.01-.33-.25-.57-.57-.57zm-14.04-20.29h-13.39c-3.25 0-5.88 2.64-5.88 5.88v14.32c0 3.25 2.64 5.88 5.88 5.88h5.8v3.45c0 .77-.61 1.38-1.38 1.38h-.81c-.77 0-1.38-.61-1.38-1.38v-1.1c0-.32-.24-.57-.57-.57h-7.02c-.32 0-.57.24-.57.57v2.07c0 4.06 2.11 5.44 5.76 6.25.65.16 2.39.41 4.18.41 1.78 0 3.53-.28 4.18-.41 3.65-.81 5.76-2.19 5.76-6.25V12.53c.01-.28-.23-.57-.56-.57zm-7.58 20.29h-1.87c-.93 0-1.7-.77-1.7-1.7v-11c0-.93.77-1.7 1.7-1.7h1.87zm38.29-20.29c-.65-.16-2.39-.41-4.18-.41-1.78 0-3.53.28-4.18.41-3.65.81-5.76 2.19-5.76 6.25v13.63c0 4.06 2.11 5.44 5.76 6.25.65.16 2.39.41 4.18.41 1.78 0 3.53-.28 4.18-.41 3.65-.81 5.76-2.19 5.76-6.25V18.25c-.04-4.1-2.15-5.43-5.76-6.29zM219.7 30.5c0 .93-.77 1.7-1.7 1.7h-.69c-.93 0-1.7-.77-1.7-1.7V19.55c0-.93.77-1.7 1.7-1.7h.69c.93 0 1.7.77 1.7 1.7z"></path><path fill="#66BD29" d="M20.77 15.25V0l-5.52 3.2v15.25zm2.07 18.7V49.2L28.4 46V30.75zm-7.59-4.42V46l5.52 3.2V32.85l9.69-5.6v17.52l5.56-3.16V7.58l-5.56-3.16v16.31zM13.14 4.42l-5.52 3.2v33.99l5.52 3.16v-16.3l15.25-8.8V3.2L22.83 0v16.35l-9.69 5.6zM5.56 8.8L.85 11.52c-.45.28-.85.85-.85 1.34v23.49c0 .45.37 1.05.85 1.34l4.71 2.72zm32.53 31.6l4.71-2.72c.45-.28.85-.85.85-1.34V12.86c0-.45-.37-1.05-.85-1.34L38.09 8.8z"></path></svg>