<svg id="svg2" version="1.1" viewBox="0 0 316.56001 53.696002" height="67.120003" width="395.70001" xmlns:xlink="http://www.w3.org/1999/xlink" xmlns="http://www.w3.org/2000/svg">
  <metadata id="metadata96">
    
      
        image/svg+xml
        
        
      
    
  </metadata>
  
  <defs id="defs4">
    
    <clipPath id="clip1">
      <path id="path7" d="M 0,0 360,0 360,360 0,360 0,0 z m 0,0"></path>
    </clipPath>
    <clipPath id="clip2">
      <path id="path10" d="m -105.68359,-14.886719 563.75,0 0,-92.500001 -563.75,0 0,92.500001 z m 0,0"></path>
    </clipPath>
    <filter color-interpolation-filters="sRGB" height="1" width="1" y="0" x="0" filterUnits="objectBoundingBox" id="alpha">
      <feColorMatrix id="feColorMatrix13" values="0 0 0 0 1 0 0 0 0 1 0 0 0 0 1 0 0 0 1 0" in="SourceGraphic" type="matrix"></feColorMatrix>
    </filter>
    <mask id="mask0">
      <g style="filter:url(#alpha)" id="g16">
        <image id="image18" height="360" width="360"></image>
      </g>
    </mask>
    <clipPath id="clip3">
      <rect y="0" x="0" id="rect21" height="360" width="360"></rect>
    </clipPath>
    <g clip-path="url(#clip3)" id="surface1">
      <image id="image24" transform="matrix(1.25,0,0,1.25,-105.682,-107.386)" height="74" width="451"></image>
    </g>
    <clipPath id="clip4">
      <path id="path27" d="M 0,0 360,0 360,360 0,360 0,0 z m 0,0"></path>
    </clipPath>
  </defs>
  <g transform="translate(-22.597656,-167.59697)" id="misc2svg">
    <g id="g30" clip-rule="nonzero" clip-path="url(#clip1)">
      <g id="g32" clip-rule="nonzero" clip-path="url(#clip2)">
        
      </g>
    </g>
    <g id="g36" clip-rule="nonzero" clip-path="url(#clip4)">
      <path id="path54" d="" style="fill:#ed1c24;fill-opacity:1;fill-rule:nonzero;stroke:none"></path>
      <path id="path68" d="m 53.58262,179.87665 -9.703125,13.04688 15.085937,26.65625 -5.382812,-39.70313 z m 0,0" style="fill:#6ec72e;fill-opacity:1;fill-rule:nonzero;stroke:none"></path>
      <path id="path70" d="m 81.078714,194.04853 -0.214844,-0.28516 -11.707031,25.85156 30.941411,0 -19.019536,-25.5664 z m 0,0" style="fill:#6ec72e;fill-opacity:1;fill-rule:nonzero;stroke:none"></path>
      <path id="path72" d="m 62.012308,219.61493 7.570312,-41.02343 -7.523438,-10.10547 -7.644531,10.27344 7.527344,40.85546 0.07031,0 z m 0,0" style="fill:#6ec72e;fill-opacity:1;fill-rule:nonzero;stroke:none"></path>
      <path id="path74" d="m 43.043558,194.04853 -19.019532,25.5664 30.605469,0 -11.363281,-25.87109 -0.222656,0.30469 z m 0,0" style="fill:#6ec72e;fill-opacity:1;fill-rule:nonzero;stroke:none"></path>
      <path id="path76" d="m 65.793558,219.61493 14.308593,-26.875 -9.65625,-12.98437 -4.824219,39.85937 0.171876,0 z m 0,0" style="fill:#6ec72e;fill-opacity:1;fill-rule:nonzero;stroke:none"></path>
      <path id="path78" d="m 129.82481,185.06025 -2.78125,0 0,15.08203 2.45312,0 c 2.89844,0 5.07422,-0.0977 6.53906,-1.48828 1.46485,-1.39453 2.19532,-3.39844 2.19532,-6.01563 0,-1.625 -0.31641,-3 -0.94532,-4.11719 -0.6289,-1.1289 -1.57031,-1.98437 -2.82812,-2.57421 -1.25391,-0.58985 -2.79688,-0.88672 -4.63281,-0.88672 m -0.82813,17.14843 -1.95312,0 0,12.48829 c 0,1.41796 0.20703,2.47265 0.6289,3.16796 0.41797,0.69922 0.9375,1.14844 1.54297,1.33985 0.60547,0.19531 1.41016,0.30859 2.42578,0.33984 l 0,0.67969 -17.48437,0 0,-0.72656 c 1.95312,0 3.20703,-0.44141 3.76172,-1.3125 0.55859,-0.88282 0.83594,-2.04297 0.83594,-3.49219 l 0,-26.08984 c 0,-1.78516 -0.35938,-3.04297 -1.08594,-3.77735 -0.72656,-0.73437 -1.89844,-1.10156 -3.51172,-1.10156 l 0,-0.72656 20.07422,0 c 2.54297,0 4.77734,0.39453 6.69531,1.1914 1.92578,0.79297 3.39062,1.91407 4.40234,3.36328 1.01172,1.45313 1.51172,3.11719 1.51172,4.98438 0,1.51953 -0.3164,2.86719 -0.96094,4.05078 -0.64062,1.17969 -1.5039,2.15234 -2.59375,2.91016 -1.08593,0.76172 -2.29687,1.34375 -3.63281,1.74609 1.73828,1.09375 3.42188,3.02734 5.0586,5.80859 l 4.44531,7.54688 c 0.7539,1.29297 1.45703,2.30469 2.09765,3.01562 0.64063,0.71485 1.20313,1.1875 1.69141,1.41797 0.48828,0.22266 1.01953,0.37891 1.58984,0.46485 l 0,0.72656 -11.54687,0 c -1.16797,-2.10547 -2.0625,-3.77344 -2.6875,-5.01953 -1.98438,-3.89063 -3.42969,-6.58985 -4.33984,-8.10938 -0.91016,-1.51562 -1.84766,-2.60937 -2.81641,-3.28125 -0.97266,-0.67578 -2.65234,-1.60547 -4.14844,-1.60547" style="fill:#409629;fill-opacity:1;fill-rule:nonzero;stroke:none"></path>
      <path id="path80" d="m 181.60215,191.80243 -0.0195,6.21875 -0.9375,-0.0625 c -0.28125,-1.07421 -0.55078,-1.77343 -0.89844,-2.46875 -0.34375,-0.69921 -0.82812,-1.23437 -1.46484,-1.60156 -0.62891,-0.375 -1.4961,-0.55859 -2.58985,-0.55859 l -6.6875,0 0.0547,11.67969 5.10547,-0.004 c 1.48828,0 2.57422,-0.30469 3.25391,-0.91406 0.68359,-0.60938 1.78906,-1.15235 1.90234,-2.34766 l 0.87109,0.008 0.0469,8.53125 -1.03516,0 c -0.20703,-1.26953 -1.48828,-2.60547 -2.30078,-3.03515 -0.8125,-0.42969 -1.78515,-0.64063 -2.90625,-0.64063 l -4.9375,0 -0.0547,8.60156 c 0.0391,3.33594 1.80469,3.82422 4.47266,3.82422 l 1.89453,0 c 1.28125,0 2.28516,-0.40625 3.08985,-0.71484 0.8125,-0.3125 1.47656,-0.84766 2.0039,-1.60938 0.52735,-0.75781 0.58985,-1.83203 1.01563,-3.22265 l 0.84375,0 -0.0195,6.89453 -23.64844,-0.004 0,-0.5625 c 1.63281,0 2.6875,-0.33984 3.16015,-1.01953 0.47657,-0.67969 0.71875,-1.57422 0.71875,-2.67187 l 0,-20.07032 c 0,-1.04687 -0.21875,-1.9375 -0.65625,-2.66406 -0.43359,-0.72265 -1.43359,-1.08594 -3.01171,-1.08594 l -0.21094,0 0,-0.5625 22.94531,0.0625 z m 0,0" style="fill:#409629;fill-opacity:1;fill-rule:nonzero;stroke:none"></path>
      <path id="path82" d="m 215.33262,200.69306 -0.57031,0 c -0.76563,-2.01563 -2.67188,-5.14844 -4.45313,-6.40625 -1.78906,-1.25781 -3.875,-1.89063 -6.25,-1.89063 -1.84765,0 -3.3789,0.39844 -4.60547,1.1875 -1.22656,0.78907 -2.17187,1.84375 -2.85156,3.15625 -0.67969,1.3125 -1.15234,2.73438 -1.41797,4.26172 -0.26172,1.53125 -0.39453,3.14844 -0.39453,4.84766 0,4.21875 0.83984,7.46094 2.51953,9.71875 1.67969,2.26562 3.94141,3.39062 6.78125,3.39062 2.04297,0 3.32031,-0.30078 3.82813,-0.90625 0.51953,-0.60546 0.77734,-1.5039 0.77734,-2.6914 l 0,-3.35938 c 0,-0.67578 -0.0508,-1.26953 -0.16016,-1.78125 -0.10156,-0.51172 -0.3125,-0.5625 -0.75,-0.99218 -0.44531,-0.42969 -1.98437,-0.66797 -2.88281,-0.72266 l 0,-0.61719 13.86719,0 0,0.61719 c -1.78125,0.23828 -3.59375,0.90234 -3.59375,2.84375 l 0,7.09766 c -3.10938,1.42187 -6.625,2.13281 -10.55078,2.13281 -1.58203,0 -3.01172,-0.11328 -4.29688,-0.32422 -1.28515,-0.21875 -2.42578,-0.52344 -3.42968,-0.91016 -1,-0.39062 -1.84375,-0.80859 -2.52735,-1.26562 -0.68359,-0.45313 -1.33594,-0.96485 -1.93359,-1.53125 -0.83594,-0.79297 -1.58203,-1.70703 -2.23828,-2.73047 -0.65235,-1.02344 -1.1875,-2.22656 -1.60157,-3.58984 -0.41796,-1.36719 -0.625,-2.86329 -0.625,-4.5 0,-2.20313 0.39063,-4.21485 1.17969,-6.03125 0.78125,-1.82032 1.89063,-3.39844 3.32813,-4.73829 1.4375,-1.33984 3.08203,-2.35546 4.92968,-3.05468 1.85157,-0.70313 3.8125,-1.05078 5.86719,-1.05078 1.15625,0 2.25,0.19531 3.08985,0.38671 0.78125,0.17579 2.16796,0.95704 4.17968,1.5625 0.63672,0.19141 1.3125,0.3125 2.05078,0.3125 0.77735,0 1.91016,-1.01562 2.16407,-2.02734 l 0.57031,0 0,9.60547 z m 0,0" style="fill:#409629;fill-opacity:1;fill-rule:nonzero;stroke:none"></path>
      <path id="path84" d="m 224.34043,191.64618 0,-0.54687 14.1875,0 0,0.58594 c -1.57422,0 -2.59375,0.35547 -3.04687,1.07422 -0.46094,0.72265 -0.69141,0.80468 -0.69141,1.98046 l 0,21.20704 c 0,0.67578 0.0664,1.27343 0.1875,1.80859 0.12109,0.53125 0.44922,1.01562 0.97266,1.44531 0.52343,0.42969 1.33203,0.64063 2.41015,0.64063 l 0.16797,0 0,0.58593 -14.1875,0 0,-0.58593 c 1.5586,0 2.57031,-0.35157 3.03906,-1.0625 0.46094,-0.71094 0.69141,-1.65625 0.69141,-2.83203 l 0,-21.20704 c 0,-1.39453 -0.30078,-1.54296 -0.90625,-2.16406 -0.61328,-0.625 -1.55469,-0.92969 -2.82422,-0.92969" style="fill:#409629;fill-opacity:1;fill-rule:nonzero;stroke:none"></path>
      <path id="path86" d="m 252.53574,204.78681 c 0,2.02344 0.14844,4.01562 0.45704,5.98047 0.30859,1.96484 1.10937,3.80078 2.39843,5.50781 1.28516,1.70703 3.22657,2.5625 5.81641,2.5625 3.63281,0 5.96094,-1.44141 6.98047,-4.32422 1.01953,-2.88281 1.53515,-5.82031 1.53515,-8.8164 0,-2.33204 -0.21093,-4.51954 -0.62109,-6.5625 -0.41016,-2.03516 -1.25,-3.77735 -2.51953,-5.23438 -1.26563,-1.44922 -3.05469,-2.17578 -5.375,-2.17578 -2.60156,0 -4.54688,0.82812 -5.82813,2.48437 -1.28125,1.64844 -2.07812,3.40625 -2.38671,5.27344 -0.3086,1.85938 -0.45704,3.62891 -0.45704,5.30469 m -7.15625,0.38281 c 0,-2.02344 0.35157,-3.96094 1.0625,-5.80859 0.70313,-1.85156 1.73829,-3.47266 3.10547,-4.8711 1.36719,-1.39453 3.01953,-2.48437 4.96875,-3.2539 1.94532,-0.77735 4.15235,-1.16797 6.61328,-1.16797 2.48438,0 4.70313,0.39453 6.64844,1.17969 1.94531,0.79297 3.60156,1.89062 4.96094,3.29297 1.35937,1.40625 2.39062,3.02734 3.08203,4.87109 0.69922,1.83594 1.05078,3.80078 1.05078,5.88281 0,2.0586 -0.34375,4.00781 -1.01562,5.82813 -0.67969,1.82031 -1.67578,3.43359 -2.98438,4.83984 -1.3125,1.40234 -2.96484,2.50781 -4.95312,3.31641 -1.98438,0.80859 -4.23438,1.21484 -6.75,1.21484 -2.70703,0 -5.07032,-0.45703 -7.08203,-1.36719 -2.01563,-0.91015 -3.66797,-2.11328 -4.94141,-3.61328 -1.27734,-1.49609 -2.22656,-3.14844 -2.83984,-4.95703 -0.61719,-1.8125 -0.92579,-3.60547 -0.92579,-5.38672" style="fill:#409629;fill-opacity:1;fill-rule:nonzero;stroke:none"></path>
      <path id="path88" d="m 291.21543,191.06025 17.4961,18.28515 0,-13.27734 c 0,-1.74609 -0.58204,-2.91797 -1.28907,-3.55859 -0.70703,-0.63672 -1.26172,-0.72266 -2.71484,-0.9336 l 0,-0.57031 9.64062,0 0,0.57031 c -1.10937,0.125 -1.59375,0.0742 -2.35546,0.5625 -0.60547,0.39063 -0.87891,0.6836 -1.3086,1.40625 -0.33594,0.57031 -0.40625,1.60547 -0.40625,2.46875 l 0,24.21485 -0.67969,0 -21.51562,-23.17579 0,16.86329 c 0,1.36718 0.0664,2.90234 0.64844,3.86718 0.58593,0.96094 2.45312,1.13672 4.02343,1.26172 l 0,0.57031 -10.3125,0 0,-0.57031 c 2.89844,-0.24219 3.5,-1.66406 3.47657,-4.28125 l 0,-19.57812 c -1.20703,-1.64063 -1.6211,-3.41797 -3.51563,-3.51563 l -0.0391,-0.60937 8.85156,0 z m 0,0" style="fill:#409629;fill-opacity:1;fill-rule:nonzero;stroke:none"></path>
      <path id="path90" d="m 337.30918,197.89618 -0.80078,0 c -0.54687,-1.83593 -1.41406,-3.28125 -2.60547,-4.33593 -1.19531,-1.0625 -3.54687,-1.58594 -5.24609,-1.58594 -0.83203,0 -1.59766,0.16016 -2.28906,0.48437 -0.69141,0.32813 -1.23829,0.79297 -1.64454,1.39844 -0.40625,0.60547 -0.60546,1.29688 -0.60546,2.08594 0,0.45312 0.0781,0.89844 0.23437,1.33594 0.15625,0.4375 0.53516,0.97265 1.13672,1.61328 0.60156,0.63281 1.51953,1.33984 2.75,2.11328 1.375,0.83984 2.21094,1.36719 2.51562,1.59375 1.72657,1.05469 3.64454,2.08594 5.04688,3.19531 1.25,0.99219 1.73828,1.6211 2.3125,2.67578 0.57812,1.05078 0.86719,2.24219 0.86719,3.57032 0,1.22656 -0.2461,2.33984 -0.73438,3.34375 -0.48828,1.00781 -0.89844,1.8789 -1.79687,2.61718 -0.89844,0.73828 -1.96875,1.3086 -3.20313,1.71875 -1.24219,0.40625 -2.58594,0.60547 -4.04297,0.60547 -1.49218,0 -3.22265,-0.27734 -5.17968,-0.82812 -0.21875,-0.0547 -0.4961,-0.11719 -0.83594,-0.17969 -0.33203,-0.0703 -0.62891,-0.10547 -0.89453,-0.10547 -0.63672,0 -1.10547,0.33984 -1.39453,1.00391 l -0.71875,0 0.0156,-8.79688 0.52734,0 c 0.25782,1.57422 0.96094,3.87891 1.875,4.87891 0.9961,1.09375 2.03907,1.53906 3.125,2.01172 1.08594,0.46875 2.16407,0.64453 3.20313,0.64453 1.52344,0 2.78906,-0.5625 3.78516,-1.38281 0.99609,-0.82422 1.48828,-1.83204 1.48828,-3.01172 0,-0.79688 -0.20313,-1.48828 -0.625,-2.07813 -0.41407,-0.59765 -1.03907,-1.17969 -1.8711,-1.75781 -0.83203,-0.57813 -2.40625,-1.58594 -4.71093,-3.01953 -1.22266,-0.76953 -2.26172,-1.51953 -3.11329,-2.23828 -0.85937,-0.71485 -1.53125,-1.40625 -2.00781,-2.0586 -0.48047,-0.66015 -0.75781,-0.99609 -1.17187,-1.88672 -0.29297,-0.61718 -0.44532,-1.33593 -0.52344,-2.07812 -0.17188,-1.60547 0.17578,-3.1875 0.9375,-4.58594 0.76172,-1.39062 1.83984,-2.53125 3.23828,-3.41797 1.40234,-0.88281 3.57813,-1.09765 5.375,-1.09765 0.83594,0 1.63672,0.0859 2.40234,0.26562 0.21094,0.0234 0.47657,0.0781 0.82422,0.16016 0.34375,0.0781 0.62891,0.14062 0.85938,0.1914 0.60547,0.10547 1.05859,0.16016 1.36328,0.16016 0.46484,0 0.78906,-0.0742 0.97266,-0.22266 0.1914,-0.14453 0.35937,-0.35546 0.52734,-0.63671 l 0.63281,0 0,7.63671 z m 0,0" style="fill:#409629;fill-opacity:1;fill-rule:nonzero;stroke:none"></path>
    </g>
  </g>
</svg>
