<svg viewBox="-123.59145 -62.49425 1071.1259 374.9655" version="1.0" width="1200" height="800" xmlns="http://www.w3.org/2000/svg"><path d="M3.682 3.378h290.513v243.221H3.682z" fill="#fff"></path><path fill="#003f2d" d="M419.19 115.51h11.58c8.054 0 16.087 1.763 16.087 11.41 0 8.669-8.526 11.574-16.404 11.574h-11.262zm-40.543 46.15h65.15c23.328 0 46.17-2.911 46.17-31.206 0-11.242-9.647-23.444-25.254-25.538v-.331c14.952-3.851 23.16-12.067 23.16-27.477 0-21.383-19.133-27.633-38.59-27.633h-70.636zm40.544-90.964h11.722c7.722 0 14.809 2.56 14.809 10.932 0 8.492-8.209 10.742-15.769 10.742h-10.77V70.696zm136.257 56.698c0 7.235-4.202 14.958-12.553 14.958-6.29 0-9.492-2.264-9.492-8.04 0-8.662 9.655-9.479 18.012-9.479h4.04v2.56zm-49.4-23.14c8.053-4.007 18.329-7.06 27.99-7.06 10.155 0 21.248 1.283 21.41 12.06-3.702-.338-10.134-1.136-15.782-1.136-20.12 0-43.266 5.155-43.266 30.862 0 17.526 15.133 24.606 30.713 24.606 11.438 0 21.755-4.506 27.362-13.999h.331v12.08h37.625v-50.961c0-30.545-28.146-34.727-51.312-34.727-15.749 0-23.005 1.446-35.065 4.818v23.457zm97.808-26.336h38.307V92.37h.324c4.818-11.729 15.911-16.39 27.35-16.39 21.538 0 29.415 11.255 29.415 27.47v58.204h-40.53v-48.232c0-4.824 0-11.411-7.066-11.411-7.257 0-7.257 6.587-7.257 11.41v48.233h-40.536V77.918zm173.119-.013h45.82l-28.301 36.956 29.45 46.8h-47.287l-22.835-40.672h-.358v40.672H712.94V41.104h40.524v70.055h.358z"></path><path fill="#54b848" d="M0 249.977h297.27V0H0zM195.137 195.9h-69.25V78.58h34.787v96.565h33.443c23.093 0 32.801-15.093 32.801-53.792 0-38.997-11.046-50.32-34.463-50.32h-76.27V195.9H81.722V71.034H31.207V50.259H203.15c41.49 0 61.224 20.126 61.224 70.784 0 66.676-29.443 74.858-69.237 74.858"></path></svg>