<svg xml:space="preserve" style="enable-background:new 0 0 841.89 595.28;" viewBox="0 0 841.89 595.28" y="0px" x="0px" xmlns:xlink="http://www.w3.org/1999/xlink" xmlns="http://www.w3.org/2000/svg" id="katman_1" version="1.1">
<style type="text/css">
	.st0{fill:#213564;}
	.st1{fill:#4087C7;}
	.st2{fill:#9DD6E4;}
	.st3{fill:#010202;}
	.st4{font-family:'ArialMT';}
	.st5{font-size:20.6375px;}
	.st6{fill:none;}
</style>
<g id="New_Co_logo">
	<path d="M244.35,271.54c30-22.1,113.93-50.07,212.25-10.14l41.76-9.12C379.97,208.29,279.62,240.52,244.35,271.54z" class="st0"></path>
	<path d="M244.35,271.54c42.78-40.55,172.32-79.06,320.31-9.12l42.78-9.33C439.17,178.89,292.6,221.87,244.35,271.54z" class="st1"></path>
	<path d="M244.35,271.54c49.06-52.71,192.59-96.7,361.87-36.09l41.36-8.92C458.63,161.46,298.88,210.32,244.35,271.54z" class="st2"></path>
	<path d="M414.03,358.71v3.04h-34.26v-3.04c7.1-0.81,9.93-2.84,9.93-10.34v-33.45c0.2-15.41-2.43-19.26-12.16-19.26
		c-6.89,0-13.18,3.65-16.42,9.73v42.98c-0.2,7.5,2.84,9.73,9.93,10.34v3.04h-34.67v-3.04c7.3-0.81,10.14-2.84,10.34-10.34v-34.06
		c0-8.51-0.61-18.65-10.95-18.65c-7.1,0.2-13.99,3.65-18.25,9.33v43.38c0.2,7.5,3.04,9.73,10.34,10.34v3.04H293v-3.24
		c7.91-0.81,10.14-3.45,9.93-10.34v-39.53c0-8.92-1.01-10.34-9.93-10.34v-3.65l24.33-8.72v13.18c8.11-8.92,17.43-12.97,24.94-12.97
		c7.91,0.2,14.8,5.88,16.42,13.58c5.88-6.89,15.81-13.58,24.73-13.58c19.46,0,20.68,17.03,20.68,31.42v30.81
		C404.1,355.87,406.73,358.1,414.03,358.71z M475.05,334.18c-4.87,8.51-13.58,17.43-24.33,17.43c-17.43,0-25.14-19.66-25.54-35.07
		h49.87c-0.41-17.03-10.34-30.41-28.58-30.41c-20.07,0-32.84,16.83-32.84,40.14c0,19.66,12.16,37.1,30.81,36.9
		c16.83,0.2,28.99-13.58,34.06-28.18L475.05,334.18z M443.02,292.62c9.93,0,14.39,8.72,14.8,17.84h-32.03
		C427.41,300.73,432.28,292.62,443.02,292.62z M256.11,286.14c-12.97-0.41-24.94,6.89-30.41,18.65l-1.01-33.04h-3.85
		c-2.43,6.28-5.27,6.69-10.95,4.87c-2.64-0.81-5.88-2.23-9.73-3.24c-4.66-1.22-9.33-1.82-14.19-1.82
		c-32.44,0-55.14,24.12-55.14,56.97c-0.41,35.88,23.72,56.36,55.14,56.56c15.61-0.2,30.41-7.5,39.94-19.87l-3.04-3.85
		c-11.15,11.15-19.66,15.41-35.48,15.61c-25.95,0-37.5-24.33-37.5-47.24c0-29.4,11.56-52.1,36.29-50.88
		c27.17,1.42,34.46,21.49,34.87,46.83c0,20.07,14.19,37.71,34.87,37.5c22.5,0.2,36.29-19.46,36.29-40.95
		S277.39,286.34,256.11,286.14z M276.18,331.95c-1.22,13.99-8.11,26.76-20.07,25.75c-14.8-1.22-20.88-19.46-18.85-42.37
		c1.42-14.19,8.31-24.53,19.87-23.72C274.76,293.23,277.39,317.15,276.18,331.95z M557.16,348.37l-0.2-63.86l-23.92,9.73
		c-0.81-5.07-5.47-8.11-10.74-8.11c-7.7,0-14.39,8.11-17.84,13.58v-13.79l-26.35,8.92v3.45c12.37-3.65,11.96,2.64,11.96,14.19v35.88
		c0,6.69-2.23,9.53-11.96,10.34v3.04h38.32v-3.04c-7.91-0.61-11.96-1.82-11.96-10.34v-39.13c0-4.46,5.07-12.16,9.53-12.37
		c7.1-0.41,5.27,6.49,12.37,6.69c4.05,0.2,6.69-3.45,11.35-3.65c5.27-0.41,5.07,5.68,5.07,10.14v38.52
		c-0.2,6.69-2.43,9.73-12.37,10.34v3.24h38.52v-3.04C561.41,358.1,557.16,356.89,557.16,348.37z M695.82,362.97l-38.92-91.63h-3.85
		l-25.95,62.03c-4.46,10.95-11.56,17.43-23.92,17.43c-16.22,0.41-24.53-16.42-24.53-31.42c0-13.38,6.69-27.98,20.27-28.18
		c8.31,0,11.96,4.66,11.96,10.95c0.2,4.05,3.65,7.3,7.7,7.5c4.26,0,7.5-3.24,7.7-7.5c-0.81-11.35-15.2-16.42-24.33-16.42
		c-24.12,0-36.29,18.85-36.29,40.14c0,20.48,12.77,37.1,30.21,36.9c9.53,0,18.45-4.26,24.12-11.96c-2.43,6.49-5.27,12.77-8.72,18.85
		c-2.64,4.46-5.88,8.11-11.56,8.51v4.46h32.23v-3.85c-3.85,0-10.74-0.61-10.95-6.69s6.49-18.45,8.51-24.73h41.56l5.68,13.58
		c5.27,12.37,7.91,17.03-7.3,17.84v3.85h41.76v-3.85C701.7,378.98,698.86,369.46,695.82,362.97L695.82,362.97z M632.98,340.06
		l17.64-43.79l18.04,43.79H632.98z" class="st0"></path>
	<text class="st3 st4 st5" transform="matrix(1 0 0 1 715.8945 382.4629)">®</text>
	<rect height="47.03" width="5.07" class="st6" y="349.18" x="711.23"></rect>
	<rect height="5.07" width="64.47" class="st6" y="382.63" x="668.45"></rect>
</g>
<g id="measure">
	<rect height="583.85" width="802.8" class="st6" y="5.36" x="19.93"></rect>
</g>
</svg>
