<?xml version="1.0" encoding="UTF-8" standalone="yes"?>
<svg xmlns="http://www.w3.org/2000/svg" height="800" width="1200" xml:space="preserve" y="0" x="0" id="Layer_1" version="1.1" viewBox="-99.55875 -21.481375 862.8425 128.88825">
  <style id="style2" type="text/css">.st0{fill:#c00}</style>
  <linearGradient y2="356.2929" x2="-52.2929" y1="357" x1="-53" gradientUnits="userSpaceOnUse" id="SVGID_1_">
    <stop id="stop4" offset="0" stop-color="#1eab4b"/>
    <stop id="stop6" offset=".9831" stop-color="#19361a"/>
  </linearGradient>
  <g transform="translate(-12.475 -8)" id="g11">
    <path id="path9" d="M311.5 37h8.8v5.4h.2c2.8-3.8 6.8-6.5 12.6-6.5 10.7 0 17.8 8.6 17.8 21.8 0 13.3-7 21.7-17.8 21.7-5.7 0-9.5-2.1-12.3-5.9h-.2v19.9h-9V37zm30.1 20.9c0-8.3-3.2-14.5-10.4-14.5-7.7 0-11 6.5-11 14.5 0 8.1 3.5 13.9 11.3 13.9 6.4 0 10.1-5.4 10.1-13.9zm24.2-15.4h.2c3-4.2 6.6-6.5 12.4-6.5 8.6 0 14 5.8 14 14.6v27.7h-9V51.7c0-4.8-3-7.8-8-7.8-5.5 0-9.6 4.2-9.6 10.2v24.2h-9V21h9zm58.9 30.4c-2.3 3.2-5.9 6.2-12.8 6.2-8 0-13.8-4.1-13.8-12.1 0-9.4 7.4-11.9 16.9-13.3 6.2-1 9.7-1.5 9.7-5.2 0-3.5-2.8-5.7-7.8-5.7-5.5 0-8.2 2.2-8.4 7h-8.6c.2-7.5 5.4-13.7 16.9-13.7 11.1 0 16.8 4.6 16.8 14.2v18c0 3 .6 4.2 3.5 3.7h.2v5.8c-.9.5-2.1.9-4.2.9-5 .1-7.6-1.6-8.4-5.8zm.1-9.5v-6.5c-2 1.2-5.1 2-8.1 2.6-5.9 1.3-9.4 2.4-9.4 7.2 0 4.5 3 5.8 6.9 5.8 7.1.1 10.6-4.8 10.6-9.1zm26.4-19.6h.2c2.5-4.4 5.8-7.1 11-7.1 1.2 0 1.9.1 2.6.3v8.2h-.2c-.6-.2-1.3-.2-2.2-.2-6.2 0-11.1 4.2-11.1 12.1v21.1h-9V37h8.8v6.8zm18.1-6.8h8.8v5.7h.2c2.3-3.8 6.5-6.7 12-6.7 5.1 0 9.2 2.8 11.1 7.3h.2c2.7-4.6 7.3-7.3 12.5-7.3 8.1 0 13.1 5.3 13.1 14.1v28.2h-9.1v-27c0-4.9-2.8-7.5-6.8-7.5-4.9 0-8.6 4-8.6 9.8v24.6h-9v-27c0-4.9-2.6-7.5-6.6-7.5-4.7 0-8.7 4-8.7 9.8v24.6h-9V37zm90.1 35.9c-2.3 3.2-5.9 6.2-12.8 6.2-8 0-13.8-4.1-13.8-12.1 0-9.4 7.4-11.9 16.9-13.3 6.2-1 9.7-1.5 9.7-5.2 0-3.5-2.8-5.7-7.8-5.7-5.5 0-8.2 2.2-8.4 7h-8.6c.2-7.5 5.4-13.7 16.9-13.7 11.1 0 16.8 4.6 16.8 14.2v18c0 3 .6 4.2 3.5 3.7h.2v5.8c-.9.5-2.1.9-4.2.9-4.9.1-7.6-1.6-8.4-5.8zm.1-9.5v-6.5c-2 1.2-5.1 2-8.1 2.6-5.9 1.3-9.4 2.4-9.4 7.2 0 4.5 3 5.8 6.9 5.8 7.1.1 10.6-4.8 10.6-9.1zm15.4-5.8c0-12.2 7.8-21.7 20.2-21.7 10.3 0 16.8 5.9 18.2 14.7h-9c-.8-4.4-4.1-7.4-9-7.4-7.5 0-11.4 5.9-11.4 14.3 0 8.3 3.8 14.3 11.3 14.3 5.4 0 8.8-2.9 9.4-8.2h8.8c-.7 9.2-7.4 15.7-18.1 15.7-12.4.1-20.4-9.5-20.4-21.7zm43.7 35.8V86h.2c1 .3 2.2.5 3.6.5 3.4 0 5-1.2 6.2-4.6l1.7-4.7L614.8 37h9.6l7.6 21.5c1.3 3.6 2.7 8.6 2.7 8.6h.2s1.3-5 2.6-8.6l7.3-21.5h9.3l-16.6 45.4c-3.1 8.8-6.2 11.5-13.3 11.5-2.1.1-3.8-.1-5.6-.5zM254.9 56.8c1.1 5.1 4 6.9 10 6.9 5.3 0 8.2-1.9 8.2-4.9 0-4.3-3.9-4.6-12-6.7-9.5-2.5-15.6-4.6-18.4-6.6-5.3-3.7-7.8-9-7.8-15.7 0-13.2 10.4-21.8 28.5-21.8 17.6 0 27.9 7.7 29.1 21.5h-20.7c-.7-4.1-3.5-6-8.8-6-4.6 0-6.9 1.5-6.9 4.6 0 3.6 3.5 4.3 10.1 6 8.5 2.2 15.2 3.5 19.5 6.5 6 4 8.7 8.9 8.7 15.9 0 14.8-10.6 23.5-30.4 23.5-18.3 0-29-8.6-30.4-23.2zm-80.4-5.2c-1.2 17.9-13 28.4-32.6 28.4-21.8 0-35-13.8-35-36 0-22.3 13.4-36 34.6-36 19.8 0 31.4 10 32.7 27.7h-20.8c-.6-6.9-4.5-10.6-11.6-10.6-8.6 0-12.8 6.3-12.8 18.9 0 12.4 4.6 18.8 13.5 18.8 6.6 0 10.8-4 11.5-11.3h20.5zM169.8 10h22.3l11.5 44 12.3-44h21.5l-22.9 68.2h-21.8zm-133-1.9c-2.6 0-5.2 1-7.1 3L15.4 25.4c-3.9 3.9-3.9 10.3 0 14.3L55.8 80l40.3-40.4c3.9-3.9 3.9-10.3 0-14.3L81.8 11.1c-2-2-4.6-3-7.1-3-2.6 0-5.2 1-7.2 3L55.8 22.9 44 11.1c-2-2-4.6-3-7.2-3z" class="st0"/>
  </g>
  <g transform="translate(-12.475 -8)" id="g15">
    <path id="path13" d="M667 36.9c-5.4 0-9.2-4-9.2-9.4 0-5.6 4.3-9.4 9.2-9.4 4.9 0 9.2 3.7 9.2 9.4s-4.3 9.4-9.2 9.4zm0-17.1c-4.1 0-7.2 3.2-7.2 7.7 0 4.3 2.8 7.7 7.2 7.7 4 0 7.2-3.2 7.2-7.7s-3.2-7.7-7.2-7.7zm-1.8 13.1h-1.7V22.6h3.9c2.5 0 3.8.9 3.8 3 0 1.9-1.1 2.7-2.7 2.8l2.9 4.6h-1.9l-2.7-4.4h-1.6zm1.9-5.8c1.3 0 2.4-.1 2.4-1.6 0-1.3-1.2-1.4-2.3-1.4h-2.1v3z" class="st0"/>
  </g>
</svg>